<!-- Generator: Adobe Illustrator 18.1.0, SVG Export Plug-In  -->
<svg version="1.1"
	 xmlns="http://www.w3.org/2000/svg" xmlns:xlink="http://www.w3.org/1999/xlink" xmlns:a="http://ns.adobe.com/AdobeSVGViewerExtensions/3.0/"
	 x="0px" y="0px" width="48.229px" height="15.418px" viewBox="0 0 48.229 15.418" enable-background="new 0 0 48.229 15.418"
	 xml:space="preserve">
<defs>
</defs>
<path opacity="0.5" fill="#ED1E70" d="M40.758,8.914c-0.923-0.952-1.248-2.317-1.877-3.484c-0.684-1.268-1.736-2.306-2.896-3.161
	c-1.841-1.357-4.061-2.307-6.348-2.267c-2.175,0.037-4.378,1.093-5.524,2.926c-1.146-1.833-3.349-2.889-5.524-2.926
	c-2.287-0.039-4.506,0.91-6.348,2.267c-1.16,0.855-2.212,1.893-2.896,3.161C8.718,6.597,8.393,7.962,7.47,8.914
	C5.638,10.804,1.471,10.355,0,8.249c1.632,2.336,1.742,4.071,4.493,5.691c0.939,0.553,1.887,0.921,2.852,1.151
	c1.897,0.453,3.862,0.376,5.969,0.134c2.341-0.269,4.705-0.678,6.823-1.711c1.64-0.8,3.099-2.326,3.977-4.099
	c0.878,1.773,2.337,3.299,3.977,4.099c2.118,1.033,4.482,1.442,6.823,1.711c2.106,0.242,4.072,0.319,5.969-0.134
	c0.966-0.23,1.913-0.598,2.852-1.151c2.751-1.62,2.861-3.355,4.493-5.691C46.757,10.355,42.59,10.804,40.758,8.914z"/>
</svg>