<!-- Generator: Adobe Illustrator 18.1.0, SVG Export Plug-In  -->
<svg version="1.1"
	 xmlns="http://www.w3.org/2000/svg" xmlns:xlink="http://www.w3.org/1999/xlink" xmlns:a="http://ns.adobe.com/AdobeSVGViewerExtensions/3.0/"
	 x="0px" y="0px" width="50.127px" height="54.043px" viewBox="0 0 50.127 54.043" enable-background="new 0 0 50.127 54.043"
	 xml:space="preserve">
<defs>
</defs>
<path fill="#E5E5E5" d="M0.001,44.071C-0.044,27.222,2.716,23.164,3.372,5.655L50.127,0l-1.39,45.368
	c0.032-0.591-11.035-0.006-14.585-0.151c-0.632-0.026-1.28-0.042-1.878,0.172c-0.832,0.298-1.457,0.998-2.045,1.674
	c-2.029,2.327-4.058,4.654-6.087,6.982c-1.864-2.663-3.728-5.325-5.592-7.988c-0.419-0.599-0.86-1.218-1.489-1.571
	c-0.701-0.394-1.537-0.404-2.335-0.405C10.691,44.075,0.013,44.071,0.001,44.071z"/>
<g opacity="0.75">
	<g>
		<path fill="#EC2071" d="M18.863,31.751c5.313-3.587,10.46-7.399,15.449-11.425c1.252-1.01-0.526-2.77-1.768-1.768
			c-4.824,3.893-9.806,7.566-14.943,11.034C16.275,30.488,17.524,32.654,18.863,31.751L18.863,31.751z"/>
	</g>
</g>
<g opacity="0.75">
	<g>
		<path fill="#EC2071" d="M19.228,19.625c3.86,4.679,7.72,9.359,11.58,14.038c1.025,1.242,2.784-0.535,1.768-1.768
			c-3.86-4.679-7.72-9.359-11.58-14.038C19.971,16.615,18.211,18.392,19.228,19.625L19.228,19.625z"/>
	</g>
</g>
</svg>