<!-- Generator: Adobe Illustrator 18.1.0, SVG Export Plug-In  -->
<svg version="1.1"
	 xmlns="http://www.w3.org/2000/svg" xmlns:xlink="http://www.w3.org/1999/xlink" xmlns:a="http://ns.adobe.com/AdobeSVGViewerExtensions/3.0/"
	 x="0px" y="0px" width="1032.469px" height="152.015px" viewBox="0 0 1032.469 152.015"
	 enable-background="new 0 0 1032.469 152.015" xml:space="preserve">
<defs>
</defs>
<polygon fill="#EC2071" stroke="#EC2071" stroke-miterlimit="10" points="1007.018,151.5 0.5,115.348 0.5,0.5 993.033,0.5 
	1031.915,28.234 "/>
<g>
	<polygon fill="#FFFFFF" stroke="#ED1E70" stroke-width="0.62" stroke-miterlimit="10" points="992.664,89.145 988.394,89.145 
		989.096,62.484 947.867,48.383 964.698,29.946 956.704,11.419 920.181,14.802 916.446,32.271 932.742,49.796 894.013,66.871 
		897.273,89.145 891.864,89.145 887.744,89.145 888.993,97.364 890.249,105.629 895.224,105.629 899.686,105.629 902.523,125.013 
		910.305,132.195 980.643,132.747 987.449,125.039 987.96,105.629 991.656,105.629 996.261,105.629 996.261,96.843 996.261,89.145 	
		"/>
	<polygon fill="#F4F4F4" points="930.504,93.496 960.744,91.816 959.064,96.55 930.504,98.536 	"/>
	<polygon fill="#FFFFFF" stroke="#ED1E70" stroke-width="0.62" stroke-miterlimit="10" points="919.254,55.743 894.013,66.871 
		897.273,89.145 920.181,66.941 	"/>
	<polygon fill="#FFFFFF" stroke="#ED1E70" stroke-width="0.62" stroke-miterlimit="10" points="989.096,62.484 975.25,57.748 
		968.472,66.941 988.394,89.145 	"/>
	<polygon fill="#FFFFFF" stroke="#ED1E70" stroke-width="0.62" stroke-miterlimit="10" points="947.867,48.383 964.698,29.946 
		956.704,11.419 920.181,14.802 916.446,32.271 932.742,49.796 910.684,59.522 920.181,66.941 953.688,66.941 960.744,69.814 
		964.44,66.941 966.732,72.444 968.472,66.941 975.289,57.761 	"/>
	<path fill="#FFFFFF" d="M912.015,111.36c3.107,1.24,6.48,1.642,9.817,1.877c7.908,0.557,15.073-1.205,17.548-9.562
		c2.107-7.113,0.41-15.482-4.7-20.937c-8.732-9.322-25.344-4.891-30.278,6.497C900.901,97.313,903.544,107.979,912.015,111.36z"/>
	<path fill="#FFFFFF" d="M975.402,111.36c-3.107,1.24-6.48,1.642-9.817,1.877c-7.908,0.557-15.073-1.205-17.548-9.562
		c-2.107-7.113-0.41-15.482,4.7-20.937c8.732-9.322,25.344-4.891,30.278,6.497C986.516,97.313,983.873,107.979,975.402,111.36z"/>
	<g>
		<defs>
			<path id="SVGID_2_" d="M912.015,111.36c3.107,1.24,6.48,1.642,9.817,1.877c7.908,0.557,15.073-1.205,17.548-9.562
				c2.107-7.113,0.41-15.482-4.7-20.937c-8.732-9.322-25.344-4.891-30.278,6.497C900.901,97.313,903.544,107.979,912.015,111.36z"/>
		</defs>
		<clipPath id="SVGID_3_">
			<use xlink:href="#SVGID_2_"  overflow="visible"/>
		</clipPath>
		<g clip-path="url(#SVGID_3_)">
			
				<line fill="none" stroke="#ED1E70" stroke-width="0.5275" stroke-miterlimit="10" x1="944.698" y1="95.923" x2="913.518" y2="124.996"/>
			
				<line fill="none" stroke="#ED1E70" stroke-width="0.5275" stroke-miterlimit="10" x1="973.476" y1="62.506" x2="910.233" y2="121.474"/>
			
				<line fill="none" stroke="#ED1E70" stroke-width="0.5275" stroke-miterlimit="10" x1="970.191" y1="58.983" x2="906.949" y2="117.951"/>
			
				<line fill="none" stroke="#ED1E70" stroke-width="0.5275" stroke-miterlimit="10" x1="966.907" y1="55.461" x2="903.664" y2="114.429"/>
			
				<line fill="none" stroke="#ED1E70" stroke-width="0.5275" stroke-miterlimit="10" x1="963.622" y1="51.938" x2="900.38" y2="110.906"/>
			
				<line fill="none" stroke="#ED1E70" stroke-width="0.5275" stroke-miterlimit="10" x1="960.338" y1="48.416" x2="897.096" y2="107.383"/>
			
				<line fill="none" stroke="#ED1E70" stroke-width="0.5275" stroke-miterlimit="10" x1="957.053" y1="44.893" x2="893.811" y2="103.861"/>
		</g>
		<use xlink:href="#SVGID_2_"  overflow="visible" fill="none" stroke="#ED1E70" stroke-width="0.31" stroke-miterlimit="10"/>
	</g>
	<g>
		<defs>
			<path id="SVGID_1_" d="M975.402,111.36c-3.107,1.24-6.48,1.642-9.817,1.877c-7.908,0.557-15.073-1.205-17.548-9.562
				c-2.107-7.113-0.41-15.482,4.7-20.937c8.732-9.322,25.344-4.891,30.278,6.497C986.516,97.313,983.873,107.979,975.402,111.36z"/>
		</defs>
		<clipPath id="SVGID_4_">
			<use xlink:href="#SVGID_1_"  overflow="visible"/>
		</clipPath>
		<g clip-path="url(#SVGID_4_)">
			
				<line fill="none" stroke="#ED1E70" stroke-width="0.5275" stroke-miterlimit="10" x1="993.182" y1="83.641" x2="929.94" y2="142.609"/>
			
				<line fill="none" stroke="#ED1E70" stroke-width="0.5275" stroke-miterlimit="10" x1="989.898" y1="80.119" x2="926.656" y2="139.086"/>
			
				<line fill="none" stroke="#ED1E70" stroke-width="0.5275" stroke-miterlimit="10" x1="986.613" y1="76.596" x2="923.371" y2="135.564"/>
			
				<line fill="none" stroke="#ED1E70" stroke-width="0.5275" stroke-miterlimit="10" x1="983.329" y1="73.074" x2="920.087" y2="132.041"/>
			
				<line fill="none" stroke="#ED1E70" stroke-width="0.5275" stroke-miterlimit="10" x1="980.044" y1="69.551" x2="945.158" y2="102.08"/>
			
				<line fill="none" stroke="#ED1E70" stroke-width="0.5275" stroke-miterlimit="10" x1="976.76" y1="66.029" x2="944.698" y2="95.923"/>
			
				<line fill="none" stroke="#ED1E70" stroke-width="0.5275" stroke-miterlimit="10" x1="996.467" y1="87.164" x2="933.225" y2="146.132"/>
		</g>
	</g>
	<path opacity="0.5" fill="#ED1E70" d="M913.698,119.422c-1.195-3.6-6.837-2.969-7.274,0.742c-0.261,2.219,1.877,4.39,4.099,4.164
		C912.746,124.101,914.402,121.543,913.698,119.422z"/>
	<path opacity="0.5" fill="#ED1E70" d="M977.407,117.151c-1.183,0.446-2.149,1.468-2.331,3.013
		c-0.261,2.219,1.877,4.391,4.099,4.164c2.223-0.227,3.878-2.785,3.175-4.906C981.596,117.151,979.241,116.459,977.407,117.151z"/>
	<path fill="#ED1E70" d="M984.135,88.75c-3.131-7.228-11.085-12.276-19.34-12.276c-5.07,0-9.668,1.928-12.948,5.43
		c-2.759,2.945-4.61,6.698-5.435,10.709l-5.344,0.297c-0.794-4.123-2.671-7.988-5.497-11.006c-3.28-3.502-7.878-5.43-12.948-5.43
		c-8.255,0-16.208,5.048-19.34,12.276c-2.067,4.77-2.136,10.441-0.186,15.17c1.653,4.009,4.66,7.054,8.467,8.573
		c3.324,1.326,6.859,1.726,10.183,1.961c0.913,0.064,1.802,0.097,2.643,0.097c0,0,0.001,0,0.001,0
		c8.653,0,14.09-3.543,16.159-10.529c0.605-2.043,0.912-4.15,0.943-6.249l4.429-0.308c0.004,2.201,0.312,4.415,0.947,6.557
		c2.069,6.987,7.506,10.529,16.16,10.529c0.84,0,1.729-0.033,2.643-0.097c3.324-0.234,6.859-0.634,10.183-1.961
		c3.807-1.519,6.814-4.564,8.467-8.573C986.271,99.191,986.202,93.52,984.135,88.75z M938.209,103.329
		c-1.774,5.992-6.166,8.782-13.821,8.782c-0.784,0-1.615-0.031-2.471-0.091c-3.127-0.22-6.436-0.59-9.45-1.792
		c-4.088-1.631-6.126-4.836-7.116-7.237c-1.704-4.132-1.641-9.093,0.169-13.27c2.757-6.362,9.789-10.806,17.102-10.806
		c4.388,0,8.354,1.654,11.167,4.658C938.457,88.555,940.233,96.495,938.209,103.329z M982.066,102.99
		c-0.99,2.401-3.029,5.606-7.116,7.237c-3.014,1.203-6.323,1.572-9.45,1.793c-0.857,0.061-1.688,0.091-2.471,0.091
		c-7.655,0-12.046-2.791-13.821-8.782c-2.024-6.834-0.247-14.774,4.421-19.757c2.814-3.004,6.779-4.658,11.167-4.658
		c7.312,0,14.345,4.444,17.102,10.806C983.706,93.897,983.769,98.858,982.066,102.99z"/>
</g>
</svg>