<!-- Generator: Adobe Illustrator 18.1.0, SVG Export Plug-In  -->
<svg version="1.1"
	 xmlns="http://www.w3.org/2000/svg" xmlns:xlink="http://www.w3.org/1999/xlink" xmlns:a="http://ns.adobe.com/AdobeSVGViewerExtensions/3.0/"
	 x="0px" y="0px" width="109.263px" height="135.235px" viewBox="0 0 109.263 135.235" enable-background="new 0 0 109.263 135.235"
	 xml:space="preserve">
<defs>
</defs>
<g>
	<polygon fill="#FFFFFF" stroke="#ED1E70" stroke-width="0.62" stroke-miterlimit="10" points="105.28,78.056 101.011,78.056 
		101.713,51.394 60.484,37.294 77.315,18.857 69.321,0.329 32.798,3.713 29.062,21.182 45.359,38.707 6.629,55.782 9.889,78.056 
		4.48,78.056 0.361,78.056 1.61,86.275 2.866,94.54 7.84,94.54 12.302,94.54 15.139,113.924 22.921,121.106 93.26,121.658 
		100.066,113.949 100.577,94.54 104.272,94.54 108.878,94.54 108.878,85.754 108.878,78.056 	"/>
	<polygon fill="#F4F4F4" points="43.12,82.407 73.36,80.727 71.68,85.461 43.12,87.447 	"/>
	<polygon fill="#FFFFFF" stroke="#ED1E70" stroke-width="0.62" stroke-miterlimit="10" points="31.87,44.654 6.629,55.782 
		9.889,78.056 32.798,55.852 	"/>
	<polygon fill="#FFFFFF" stroke="#ED1E70" stroke-width="0.62" stroke-miterlimit="10" points="101.713,51.394 87.866,46.659 
		81.088,55.852 101.011,78.056 	"/>
	<polygon fill="#FFFFFF" stroke="#ED1E70" stroke-width="0.62" stroke-miterlimit="10" points="60.484,37.294 77.315,18.857 
		69.321,0.329 32.798,3.713 29.062,21.182 45.359,38.707 23.3,48.432 32.798,55.852 66.304,55.852 73.36,58.725 77.056,55.852 
		79.349,61.355 81.088,55.852 87.905,46.672 	"/>
	<path fill="#FFFFFF" d="M24.631,100.271c3.107,1.24,6.48,1.642,9.817,1.877c7.908,0.557,15.073-1.205,17.548-9.562
		c2.107-7.113,0.41-15.482-4.7-20.937c-8.732-9.322-25.344-4.891-30.278,6.497C13.518,86.224,16.16,96.89,24.631,100.271z"/>
	<path fill="#FFFFFF" d="M88.018,100.271c-3.107,1.24-6.48,1.642-9.817,1.877c-7.908,0.557-15.073-1.205-17.548-9.562
		c-2.107-7.113-0.41-15.482,4.7-20.937c8.732-9.322,25.344-4.891,30.278,6.497C99.132,86.224,96.49,96.89,88.018,100.271z"/>
	<g>
		<defs>
			<path id="SVGID_2_" d="M24.631,100.271c3.107,1.24,6.48,1.642,9.817,1.877c7.908,0.557,15.073-1.205,17.548-9.562
				c2.107-7.113,0.41-15.482-4.7-20.937c-8.732-9.322-25.344-4.891-30.278,6.497C13.518,86.224,16.16,96.89,24.631,100.271z"/>
		</defs>
		<clipPath id="SVGID_3_">
			<use xlink:href="#SVGID_2_"  overflow="visible"/>
		</clipPath>
		<g clip-path="url(#SVGID_3_)">
			
				<line fill="none" stroke="#ED1E70" stroke-width="0.5275" stroke-miterlimit="10" x1="57.315" y1="84.834" x2="26.134" y2="113.907"/>
			
				<line fill="none" stroke="#ED1E70" stroke-width="0.5275" stroke-miterlimit="10" x1="86.092" y1="51.417" x2="22.85" y2="110.384"/>
			
				<line fill="none" stroke="#ED1E70" stroke-width="0.5275" stroke-miterlimit="10" x1="82.808" y1="47.894" x2="19.565" y2="106.862"/>
			
				<line fill="none" stroke="#ED1E70" stroke-width="0.5275" stroke-miterlimit="10" x1="79.523" y1="44.372" x2="16.281" y2="103.339"/>
			
				<line fill="none" stroke="#ED1E70" stroke-width="0.5275" stroke-miterlimit="10" x1="76.239" y1="40.849" x2="12.996" y2="99.817"/>
			
				<line fill="none" stroke="#ED1E70" stroke-width="0.5275" stroke-miterlimit="10" x1="72.954" y1="37.327" x2="9.712" y2="96.294"/>
			
				<line fill="none" stroke="#ED1E70" stroke-width="0.5275" stroke-miterlimit="10" x1="69.67" y1="33.804" x2="6.427" y2="92.772"/>
		</g>
		<use xlink:href="#SVGID_2_"  overflow="visible" fill="none" stroke="#ED1E70" stroke-width="0.31" stroke-miterlimit="10"/>
	</g>
	<g>
		<defs>
			<path id="SVGID_1_" d="M88.018,100.271c-3.107,1.24-6.48,1.642-9.817,1.877c-7.908,0.557-15.073-1.205-17.548-9.562
				c-2.107-7.113-0.41-15.482,4.7-20.937c8.732-9.322,25.344-4.891,30.278,6.497C99.132,86.224,96.49,96.89,88.018,100.271z"/>
		</defs>
		<clipPath id="SVGID_4_">
			<use xlink:href="#SVGID_1_"  overflow="visible"/>
		</clipPath>
		<g clip-path="url(#SVGID_4_)">
			
				<line fill="none" stroke="#ED1E70" stroke-width="0.5275" stroke-miterlimit="10" x1="105.799" y1="72.552" x2="42.557" y2="131.52"/>
			
				<line fill="none" stroke="#ED1E70" stroke-width="0.5275" stroke-miterlimit="10" x1="102.514" y1="69.029" x2="39.272" y2="127.997"/>
			
				<line fill="none" stroke="#ED1E70" stroke-width="0.5275" stroke-miterlimit="10" x1="99.23" y1="65.507" x2="35.988" y2="124.475"/>
			
				<line fill="none" stroke="#ED1E70" stroke-width="0.5275" stroke-miterlimit="10" x1="95.945" y1="61.984" x2="32.703" y2="120.952"/>
			
				<line fill="none" stroke="#ED1E70" stroke-width="0.5275" stroke-miterlimit="10" x1="92.661" y1="58.462" x2="57.774" y2="90.991"/>
			
				<line fill="none" stroke="#ED1E70" stroke-width="0.5275" stroke-miterlimit="10" x1="89.376" y1="54.939" x2="57.315" y2="84.834"/>
			
				<line fill="none" stroke="#ED1E70" stroke-width="0.5275" stroke-miterlimit="10" x1="109.083" y1="76.075" x2="45.841" y2="135.042"/>
		</g>
	</g>
	<path opacity="0.5" fill="#ED1E70" d="M26.314,108.333c-1.195-3.6-6.837-2.969-7.274,0.742c-0.261,2.219,1.877,4.39,4.099,4.164
		C25.362,113.012,27.018,110.454,26.314,108.333z"/>
	<path opacity="0.5" fill="#ED1E70" d="M90.024,106.062c-1.183,0.446-2.149,1.468-2.331,3.013c-0.261,2.219,1.877,4.391,4.099,4.164
		c2.223-0.227,3.878-2.785,3.175-4.906C94.212,106.062,91.858,105.37,90.024,106.062z"/>
	<path fill="#ED1E70" d="M96.751,77.661c-3.131-7.228-11.085-12.276-19.34-12.276c-5.07,0-9.668,1.928-12.948,5.43
		c-2.759,2.945-4.61,6.698-5.435,10.709l-5.344,0.297c-0.794-4.123-2.671-7.988-5.497-11.006c-3.28-3.502-7.878-5.43-12.948-5.43
		c-8.255,0-16.208,5.048-19.34,12.276c-2.067,4.77-2.136,10.441-0.186,15.17c1.653,4.009,4.66,7.054,8.467,8.573
		c3.324,1.326,6.859,1.726,10.183,1.961c0.913,0.064,1.802,0.097,2.643,0.097c0,0,0.001,0,0.001,0
		c8.653,0,14.09-3.543,16.159-10.529c0.605-2.043,0.912-4.15,0.943-6.249l4.429-0.308c0.004,2.201,0.312,4.415,0.947,6.557
		c2.069,6.987,7.506,10.529,16.16,10.529c0.84,0,1.73-0.033,2.643-0.097c3.324-0.234,6.859-0.634,10.183-1.961
		c3.807-1.519,6.814-4.564,8.467-8.573C98.888,88.102,98.818,82.431,96.751,77.661z M50.826,92.24
		c-1.774,5.992-6.166,8.782-13.821,8.782c-0.784,0-1.615-0.031-2.472-0.091c-3.127-0.22-6.436-0.59-9.45-1.792
		c-4.088-1.631-6.126-4.836-7.116-7.237c-1.704-4.132-1.641-9.093,0.169-13.27c2.757-6.362,9.789-10.806,17.101-10.806
		c4.388,0,8.354,1.654,11.167,4.658C51.073,77.466,52.85,85.406,50.826,92.24z M94.682,91.901c-0.99,2.401-3.029,5.606-7.116,7.237
		c-3.014,1.203-6.323,1.572-9.45,1.793c-0.857,0.061-1.688,0.091-2.472,0.091c-7.655,0-12.046-2.791-13.821-8.782
		c-2.024-6.834-0.247-14.774,4.421-19.757c2.814-3.004,6.779-4.658,11.167-4.658c7.312,0,14.345,4.444,17.101,10.806
		C96.323,82.808,96.386,87.769,94.682,91.901z"/>
</g>
</svg>