<!-- Generator: Adobe Illustrator 18.1.0, SVG Export Plug-In  -->
<svg version="1.1"
	 xmlns="http://www.w3.org/2000/svg" xmlns:xlink="http://www.w3.org/1999/xlink" xmlns:a="http://ns.adobe.com/AdobeSVGViewerExtensions/3.0/"
	 x="0px" y="0px" width="64.227px" height="75.479px" viewBox="0 0 64.227 75.479" enable-background="new 0 0 64.227 75.479"
	 xml:space="preserve">
<defs>
</defs>
<g>
	<path fill="#FFFFFF" stroke="#65BFB2" stroke-width="0.7817" stroke-linejoin="round" stroke-miterlimit="10" d="M7.327,14.274
		c-0.454-1.766-0.911-3.548-0.979-5.37C6.281,7.082,6.632,5.192,7.671,3.695c1.285-1.852,3.496-2.906,5.728-3.217
		c0.957-0.133,1.954-0.142,2.865,0.18c1.091,0.385,1.974,1.212,2.679,2.129c1.908,2.481,2.695,5.793,2.106,8.867"/>
	<path fill="#FFFFFF" stroke="#65BFB2" stroke-width="0.7817" stroke-linejoin="round" stroke-miterlimit="10" d="M40.463,10.489
		c-0.048-0.484-0.088-0.97-0.093-1.456c-0.028-3.219,1.726-6.491,4.615-7.911c2.89-1.42,6.794-0.656,8.655,1.971
		c1.782,2.514,1.466,5.899,1.073,8.956"/>
	<path fill="#FFFFFF" stroke="#65BFB2" stroke-width="0.7817" stroke-linejoin="round" stroke-miterlimit="10" d="M5.503,12.649
		c0.181-0.16,0.376-0.313,0.588-0.458c1.418-0.972,3.135-1.39,4.817-1.745C22.807,7.933,35.09,7.637,47.221,8.487
		c2.944,0.206,6.014,0.523,8.492,2.125c4.323,2.795,3.63,8.898,3.853,13.374c-18.29,2.008-36.739,1.907-55.139,1.802
		C4.216,21.741,1.951,15.799,5.503,12.649z"/>
	<path fill="#FFFFFF" stroke="#65BFB2" stroke-width="0.6254" stroke-linejoin="round" stroke-miterlimit="10" d="M40.051,21.14
		c0.875-1.762,1.751-3.523,2.626-5.285c0.452-0.315,0.992,0.253,1.25,0.74c0.495,0.935,0.991,1.869,1.486,2.804
		c0.474-1.476,1.149-2.888,2.001-4.184c0.104-0.158,0.239-0.331,0.428-0.337c0.211-0.006,0.361,0.196,0.469,0.378
		c1.062,1.783,1.907,3.696,2.509,5.682"/>
	<path fill="#FFFFFF" stroke="#65BFB2" stroke-width="0.7817" stroke-linejoin="round" stroke-miterlimit="10" d="M5.004,74.081
		C3.16,59.329,2.948,44.445,2.198,29.605c-0.1-1.971-0.199-3.946-0.093-5.917c0.025-0.469,0.069-0.959,0.316-1.359
		c0.312-0.504,0.888-0.772,1.439-0.994c7.59-3.056,46.853-4.974,55.668-0.971c0.374,0.17,0.753,0.358,1.024,0.667
		c0.437,0.497,0.516,1.204,0.572,1.864c0.712,8.371,0.867,16.778,0.87,25.175c0.003,7.838-0.767,15.635-0.61,23.395
		c0.022,1.089-0.247,2.531-1.33,2.64c-0.979,0.099-1.592-1.075-1.637-2.057c-0.045-0.983,0.166-2.052-0.352-2.889
		c-0.676-1.093-2.198-1.198-3.483-1.179c-15.085,0.229-30.55,0.231-45.544,1.972c-0.395,0.046-0.808,0.101-1.135,0.328
		c-0.899,0.622-0.616,1.976-0.65,3.069s-1.389,2.322-2.027,1.433C5.08,74.582,5.04,74.326,5.004,74.081z"/>
	<path fill="#FFFFFF" stroke="#65BFB2" stroke-width="0.7817" stroke-linejoin="round" stroke-miterlimit="10" d="M54.481,12.253"/>
	<path fill="#66C0B3" d="M10.071,14.606c0.86-0.299,1.889,0.542,1.766,1.445c-0.123,0.902-1.34,1.438-2.088,0.92
		c-0.749-0.518-0.675-1.846,0.126-2.279"/>
	<path fill="#66C0B3" d="M53.828,15.728c1.532-1.06-0.626-3.711-1.736-1.831C51.455,14.976,52.674,16.526,53.828,15.728z"/>
	<path fill="#FFFFFF" stroke="#65BFB2" stroke-width="0.7817" stroke-linejoin="round" stroke-miterlimit="10" d="M28.364,34.36
		c-3.36,0.513-6.685,1.476-9.178,3.028c-3.361,2.093-5.911,5.825-5.706,9.779c0.457,8.831,8.373,12.53,16.02,12.685
		c5.474,0.111,11.197-0.349,15.89-3.167c5.565-3.342,7.809-11.149,3.861-16.593c-2.907-4.01-8.021-5.941-12.969-6.165
		C33.915,33.819,31.128,33.937,28.364,34.36z"/>
	<path fill="#FFFFFF" stroke="#65BFB2" stroke-width="0.7817" stroke-linejoin="round" stroke-miterlimit="10" d="M14.074,36.586
		c-0.553-0.952-1.122-2.078-0.717-3.102s2.316-1.128,2.377-0.029c-0.04-0.845-0.042-1.796,0.55-2.401
		c0.592-0.605,1.945-0.3,1.863,0.542c0.133-1.3,0.321-2.716,1.264-3.62c0.943-0.904,2.895-0.743,3.182,0.531
		c0.253-0.982,0.56-1.985,1.217-2.757c0.657-0.772,1.752-1.257,2.707-0.919s1.481,1.69,0.807,2.447
		c0.902-0.738,1.901-1.512,3.066-1.531c1.165-0.019,2.373,1.176,1.897,2.24c1.158-1.344,2.466-2.774,4.218-3.048
		c1.752-0.274,3.801,1.42,3.131,3.062c0.606-1.523,1.563-3.107,3.141-3.549s3.579,1.14,2.911,2.637
		c0.345-0.448,1.059-0.552,1.517-0.221c0.458,0.331,0.583,1.042,0.266,1.51c1.978,0.047,3.568,1.831,4.062,3.747
		c0.494,1.916,0.143,3.935-0.21,5.882c-10.885,1.3-21.862,1.821-32.821,1.556c-0.649-0.016-1.312-0.037-1.916-0.275
		C15.417,38.829,14.704,37.671,14.074,36.586z"/>
	<path fill="#FFFFFF" stroke="#65BFB2" stroke-width="0.6254" stroke-linejoin="round" stroke-miterlimit="10" d="M10.287,35.406
		c0.422-0.327,0.993-0.428,1.537-0.514c13.443-2.13,26.758-2.015,40.256-0.84c0.533,0.046,1.133,0.131,1.443,0.533
		c0.271,0.352,0.22,0.826,0.159,1.253c-0.444,3.071-1.777,36.515-3.142,36.575c-11.178,0.487-22.374,0.612-33.561,0.375
		c-2.993-11.417-4.121-23.142-7.22-34.537C9.566,37.256,9.448,36.058,10.287,35.406z"/>
	<g>
		<path fill="#FFFFFF" stroke="#65BFB2" stroke-width="0.469" stroke-linejoin="round" stroke-miterlimit="10" d="M13.406,34.658
			l7.031,38.19c2.271,0.033,4.542,0.049,6.813,0.052l-8.97-38.858C16.656,34.216,15.032,34.421,13.406,34.658z"/>
		<path fill="#FFFFFF" stroke="#65BFB2" stroke-width="0.469" stroke-linejoin="round" stroke-miterlimit="10" d="M44.866,33.533
			l-4.325,39.215c2.138-0.052,4.275-0.115,6.412-0.193l3.794-38.612C48.784,33.782,46.823,33.643,44.866,33.533z"/>
		<path fill="#FFFFFF" stroke="#65BFB2" stroke-width="0.469" stroke-linejoin="round" stroke-miterlimit="10" d="M25.767,33.442
			l5.184,39.45c1.826-0.01,3.652-0.031,5.477-0.061l2.021-39.557C34.217,33.172,29.993,33.216,25.767,33.442z"/>
	</g>
	<path fill="none" stroke="#65BFB2" stroke-width="0.6254" stroke-linejoin="round" stroke-miterlimit="10" d="M10.287,35.406
		c0.422-0.327,0.993-0.428,1.537-0.514c13.443-2.13,26.758-2.015,40.256-0.84c0.533,0.046,1.133,0.131,1.443,0.533
		c0.271,0.352,0.22,0.826,0.159,1.253c-0.444,3.071-1.777,36.515-3.142,36.575c-11.178,0.487-22.374,0.612-33.561,0.375
		c-2.993-11.417-4.121-23.142-7.22-34.537C9.566,37.256,9.448,36.058,10.287,35.406z"/>
	<g>
		<path fill="#FFFFFF" stroke="#65BFB2" stroke-width="0.7817" stroke-linejoin="round" stroke-miterlimit="10" d="M21.99,41.802
			c-1.827-1.149-4.162-0.881-6.315-0.738c-1.846,0.123-4.369,0.252-6.702-0.079c-1.835-0.26-2.622-0.805-3.802-1.862
			c-0.553-0.495-0.971-1.124-1.317-1.781c-0.71-1.346-1.381-2.839-1.496-4.355c-0.003-0.042-0.006-0.074-0.009-0.107
			c-0.05-1.092-0.096-2.184-0.151-3.276c-0.1-1.971-0.199-3.946-0.093-5.917c0.018-0.33,0.048-0.669,0.149-0.981
			C-0.2,26.819,0.172,34.604,1.097,38.281c0.416,1.656,0.98,3.259,1.693,4.763c1.82,3.84,4.64,7.016,8.684,8.649
			c2.224,0.898,4.697,1.334,7.039,0.814c2.341-0.519,4.516-2.099,5.371-4.339C24.738,45.927,24.02,43.079,21.99,41.802z"/>
		<path fill="#FFFFFF" stroke="#65BFB2" stroke-width="0.7817" stroke-linejoin="round" stroke-miterlimit="10" d="M61.326,21.448
			c-0.034-0.03-0.069-0.058-0.103-0.088c-0.075-0.051-0.151-0.101-0.223-0.156c-0.033-0.02-0.062-0.043-0.094-0.064
			c-0.08-0.04-0.16-0.077-0.241-0.115c-0.095-0.044-0.185-0.092-0.275-0.139c0.055,0.048,0.114,0.091,0.162,0.146
			c0.437,0.497,0.516,1.204,0.572,1.864c0.221,2.599,0.385,5.202,0.511,7.806c-0.008,0.066-0.012,0.144-0.006,0.246
			c0.122,2.042-0.298,4.119-1.253,5.929c-0.346,0.656-0.764,1.286-1.317,1.781c-1.18,1.057-1.967,1.602-3.802,1.862
			c-2.333,0.331-4.855,0.202-6.702,0.079c-2.154-0.144-4.488-0.411-6.315,0.738c-2.03,1.277-2.749,4.125-1.893,6.366
			c0.855,2.241,3.03,3.82,5.371,4.339c2.341,0.519,4.815,0.084,7.039-0.814c4.442-1.795,7.41-5.449,9.194-9.803
			c0.476-1.161,0.872-2.37,1.183-3.609c0.953-3.789,1.312-11.929-1.396-15.928C61.602,21.739,61.468,21.59,61.326,21.448z"/>
	</g>
</g>
</svg>