<!-- Generator: Adobe Illustrator 18.1.0, SVG Export Plug-In  -->
<svg version="1.1"
	 xmlns="http://www.w3.org/2000/svg" xmlns:xlink="http://www.w3.org/1999/xlink" xmlns:a="http://ns.adobe.com/AdobeSVGViewerExtensions/3.0/"
	 x="0px" y="0px" width="194.441px" height="191.906px" viewBox="0 0 194.441 191.906" enable-background="new 0 0 194.441 191.906"
	 xml:space="preserve">
<defs>
</defs>
<g>
	<polygon fill="#F4F4F4" points="69.747,92.168 126.514,89.015 123.361,97.901 69.747,101.63 	"/>
	<path fill="#42C5E6" stroke="#ED1E70" stroke-miterlimit="10" d="M35.039,125.703c5.832,2.328,12.164,3.082,18.428,3.523
		c14.845,1.046,28.295-2.261,32.941-17.949c3.954-13.353,0.769-29.063-8.823-39.304c-16.392-17.5-47.576-9.182-56.839,12.196
		C14.176,99.333,19.136,119.356,35.039,125.703z"/>
	<path fill="#F1B01D" d="M154.031,125.703c-5.832,2.328-12.164,3.082-18.428,3.523c-14.845,1.046-28.295-2.261-32.941-17.949
		c-3.954-13.353-0.769-29.063,8.823-39.304c16.392-17.5,47.576-9.182,56.839,12.196C174.894,99.333,169.933,119.356,154.031,125.703
		z"/>
	<g>
		<defs>
			<path id="SVGID_2_" d="M35.039,125.703c5.832,2.328,12.164,3.082,18.428,3.523c14.845,1.046,28.295-2.261,32.941-17.949
				c3.954-13.353,0.769-29.063-8.823-39.304c-16.392-17.5-47.576-9.182-56.839,12.196C14.176,99.333,19.136,119.356,35.039,125.703z
				"/>
		</defs>
		<clipPath id="SVGID_3_">
			<use xlink:href="#SVGID_2_"  overflow="visible"/>
		</clipPath>
		<g clip-path="url(#SVGID_3_)">
			
				<line fill="none" stroke="#E5E5E5" stroke-width="2.5407" stroke-miterlimit="10" x1="96.393" y1="96.724" x2="37.861" y2="151.301"/>
			
				<line fill="none" stroke="#E5E5E5" stroke-width="2.5407" stroke-miterlimit="10" x1="150.415" y1="33.992" x2="31.695" y2="144.688"/>
			
				<line fill="none" stroke="#E5E5E5" stroke-width="2.5407" stroke-miterlimit="10" x1="144.249" y1="27.38" x2="25.529" y2="138.075"/>
			
				<line fill="none" stroke="#E5E5E5" stroke-width="2.5407" stroke-miterlimit="10" x1="138.083" y1="20.767" x2="19.363" y2="131.463"/>
			
				<line fill="none" stroke="#E5E5E5" stroke-width="2.5407" stroke-miterlimit="10" x1="131.918" y1="14.154" x2="13.198" y2="124.85"/>
			
				<line fill="none" stroke="#E5E5E5" stroke-width="2.5407" stroke-miterlimit="10" x1="125.752" y1="7.542" x2="7.032" y2="118.238"/>
			
				<line fill="none" stroke="#E5E5E5" stroke-width="2.5407" stroke-miterlimit="10" x1="119.586" y1="0.929" x2="0.866" y2="111.625"/>
		</g>
	</g>
	<g>
		<defs>
			<path id="SVGID_1_" d="M154.031,125.703c-5.832,2.328-12.164,3.082-18.428,3.523c-14.845,1.046-28.295-2.261-32.941-17.949
				c-3.954-13.353-0.769-29.063,8.823-39.304c16.392-17.5,47.576-9.182,56.839,12.196
				C174.894,99.333,169.933,119.356,154.031,125.703z"/>
		</defs>
		<clipPath id="SVGID_4_">
			<use xlink:href="#SVGID_1_"  overflow="visible"/>
		</clipPath>
		<g clip-path="url(#SVGID_4_)">
			
				<line fill="none" stroke="#E5E5E5" stroke-width="2.5407" stroke-miterlimit="10" x1="187.409" y1="73.668" x2="68.689" y2="184.364"/>
			
				<line fill="none" stroke="#E5E5E5" stroke-width="2.5407" stroke-miterlimit="10" x1="181.243" y1="67.055" x2="62.523" y2="177.751"/>
			
				<line fill="none" stroke="#E5E5E5" stroke-width="2.5407" stroke-miterlimit="10" x1="175.077" y1="60.443" x2="56.358" y2="171.139"/>
			
				<line fill="none" stroke="#E5E5E5" stroke-width="2.5407" stroke-miterlimit="10" x1="168.912" y1="53.83" x2="50.192" y2="164.526"/>
			
				<line fill="none" stroke="#E5E5E5" stroke-width="2.5407" stroke-miterlimit="10" x1="162.746" y1="47.218" x2="97.256" y2="108.281"/>
			
				<line fill="none" stroke="#E5E5E5" stroke-width="2.5407" stroke-miterlimit="10" x1="156.58" y1="40.605" x2="96.393" y2="96.724"/>
			
				<line fill="none" stroke="#E5E5E5" stroke-width="2.5407" stroke-miterlimit="10" x1="193.574" y1="80.281" x2="74.855" y2="190.976"/>
		</g>
	</g>
	<path fill="#FFFFFF" stroke="#FFFFFF" stroke-width="1.5" stroke-miterlimit="10" d="M170.794,83.098
		c-5.94-13.711-21.021-23.287-36.675-23.287c-9.63,0-18.366,3.665-24.6,10.32c-5.252,5.607-8.755,12.761-10.31,20.4l-9.25,0.514
		c-1.5-7.832-5.039-15.181-10.409-20.914c-6.234-6.655-14.97-10.32-24.6-10.32c-15.653,0-30.734,9.576-36.675,23.287
		c-3.922,9.052-4.054,19.814-0.353,28.791c3.145,7.628,8.869,13.422,16.118,16.315c6.293,2.511,12.965,3.266,19.237,3.708
		c1.723,0.122,3.402,0.183,4.989,0.183c0.001,0,0.001,0,0.002,0c16.444,0,26.781-6.748,30.722-20.054
		c1.149-3.881,1.721-7.884,1.777-11.873l7.537-0.524c0.01,4.162,0.576,8.346,1.775,12.397c3.94,13.307,14.277,20.054,30.723,20.054
		c1.586,0,3.265-0.062,4.989-0.183c6.271-0.442,12.943-1.197,19.236-3.708c7.249-2.893,12.973-8.687,16.118-16.315
		C174.848,102.913,174.717,92.15,170.794,83.098z M83.826,110.511c-3.611,12.191-13.088,17.229-30.17,16.028
		c-5.837-0.411-12.011-1.101-17.619-3.338c-7.543-3.01-11.307-8.93-13.136-13.366c-3.158-7.658-3.04-16.853,0.315-24.597
		C28.33,73.438,41.38,65.196,54.95,65.196c8.125,0,15.465,3.06,20.669,8.617C84.288,83.068,87.586,97.815,83.826,110.511z
		 M166.168,109.836c-1.829,4.436-5.593,10.355-13.136,13.366c-5.608,2.237-11.782,2.927-17.619,3.338
		c-17.096,1.203-26.56-3.838-30.17-16.028c-3.76-12.696-0.462-27.444,8.206-36.698c5.205-5.557,12.545-8.617,20.669-8.617
		c13.571,0,26.621,8.242,31.733,20.043C169.208,92.983,169.326,102.178,166.168,109.836z"/>
</g>
</svg>