<!-- Generator: Adobe Illustrator 18.1.0, SVG Export Plug-In  -->
<svg version="1.1"
	 xmlns="http://www.w3.org/2000/svg" xmlns:xlink="http://www.w3.org/1999/xlink" xmlns:a="http://ns.adobe.com/AdobeSVGViewerExtensions/3.0/"
	 x="0px" y="0px" width="300.4px" height="353px" viewBox="0 0 300.4 353" enable-background="new 0 0 300.4 353"
	 xml:space="preserve">
<defs>
</defs>
<g>
	<path fill="#FFFFFF" stroke="#65BFB2" stroke-linejoin="round" stroke-miterlimit="10" d="M196.7,79c8.9,4.5,19.8,2.9,28.4-0.3
		c12.1-4.6,22.9-13.7,26.3-26.1c3.3-12-0.8-25.8-9.3-35.7c-19.9-23.1-53.2-21.9-65.9,5c-4.6,9.8-5.1,21.6-1.3,32.1
		C178.8,64.9,186.9,74.1,196.7,79z"/>
	<path fill="#FFFFFF" stroke="#65BFB2" stroke-linejoin="round" stroke-miterlimit="10" d="M297.7,55.8c0.4-0.8,0.8-1.6,1.2-2.4
		c0.9-1.8,1.7-4.2,0.2-5.5c-0.7-0.6-1.7-0.7-2.6-0.8c-15-1.4-30,0.9-45,1.3c-8.8,0.2-17.5,0.5-26.3,0.5c-5,0-9.5,0.1-14.4-0.4
		c-2.1-0.2-4.8,0.6-5.1,2.7c-0.1,0.9,0.3,1.7,0.7,2.5c7.2,14.8,18.9,28.4,28.3,41.8c5.6,8,11.2,16.1,17,24.1
		c1,1.4,12.2,14.8,11.9,15.6C274.5,108.2,284.9,81.9,297.7,55.8z"/>
	<path fill="#FFFFFF" stroke="#65BFB2" stroke-width="1.5" stroke-linejoin="round" stroke-miterlimit="10" d="M137.9,57
		c-12.2,1.9-25,9.8-33,19c-4.7,5.3-7.9,11.7-11.8,17.6c-3.9,5.9-8.8,11.5-15.5,14c-1-1.6-0.1-3.8,0.9-5.5
		c9.6-16.2,21.1-32.1,34.1-45.9c13.5-14.3,29.8-26.3,48.6-32.3c9.8-3.1,22.8-3.4,27.9,5.6c3.8,6.8,0.6,15.9-5.6,20.7
		c-6.2,4.8-14.3,6.1-22.2,6.3S145.6,55.7,137.9,57z"/>
	<path fill="#FFFFFF" stroke="#65BFB2" stroke-width="1.5" stroke-linejoin="round" stroke-miterlimit="10" d="M246.9,164.3
		c0.1,12.3-5.6,26.2-13.4,35.7c-4.5,5.5-10.3,9.7-15.5,14.5c-5.2,4.8-9.9,10.6-11.3,17.5c1.8,0.8,3.7-0.5,5.2-1.8
		c14.5-12.1,28.2-26.1,39.7-41.1c11.9-15.6,21.2-33.7,24-53.2c1.5-10.2-0.4-23-10-26.6c-7.3-2.7-15.8,2-19.6,8.9
		c-3.7,6.9-3.7,15.1-2.6,22.9C244.7,148.8,246.8,156.5,246.9,164.3z"/>
	<path fill="#FFFFFF" stroke="#65BFB2" stroke-width="1.5" stroke-linejoin="round" stroke-miterlimit="10" d="M99.5,103.3
		c3-5,6-10,10.1-14.3c4-4.2,9.1-7.7,14.8-8.7c7.1-1.2,14.5,1.5,20.2,5.8c2.5,1.9,4.7,4.1,6,6.9c1.6,3.4,1.7,7.2,1.2,10.9
		c-1.4,9.9-7.2,19.1-15.5,24.7"/>
	<path fill="#FFFFFF" stroke="#65BFB2" stroke-width="1.5" stroke-linejoin="round" stroke-miterlimit="10" d="M182.4,170.4
		c1-1.2,2-2.4,3.1-3.5c7.3-7.3,18.7-10.6,28.4-7.2c9.7,3.4,16.7,14,14.9,24.2c-1.7,9.7-10.2,16.6-18,22.5"/>
	<path fill="#FFFFFF" stroke="#65BFB2" stroke-width="1.5" stroke-linejoin="round" stroke-miterlimit="10" d="M105.5,89.2
		c0.8,0.1,1.6,0.2,2.4,0.3c5.4,1.1,10.2,4,14.8,7.1c32.4,21.5,60.6,48.8,85.9,78.4c6.1,7.2,12.3,14.9,14.2,24.1
		c3.3,16.1-12.2,28.2-21.9,38.8c-45.6-37.2-86.7-79.5-127.8-121.7C81.9,106.7,90.3,88.2,105.5,89.2z"/>
	<path fill="#FFFFFF" stroke="#65BFB2" stroke-linejoin="round" stroke-miterlimit="10" d="M167.8,182.9c6-2,12-3.9,17.9-5.9
		c1.7,0.3,1.6,2.8,1.1,4.5c-1,3.2-2,6.5-3.1,9.7c4.4-2.2,9.2-3.9,14-4.8c0.6-0.1,1.3-0.2,1.7,0.2c0.5,0.5,0.4,1.3,0.2,1.9
		c-1.7,6.4-4.2,12.6-7.3,18.5"/>
	<path fill="#FFFFFF" stroke="#65BFB2" stroke-width="1.5" stroke-linejoin="round" stroke-miterlimit="10" d="M1.3,225.9
		c0.8-6.4,2.7-12.8,4.7-19c14.1-42.2,39.9-77.6,73.1-106.9c1.1-1,2.3-2,3.8-2.3c1.9-0.4,3.8,0.3,5.5,1.1
		c24,10.5,116.4,95.7,127,124.8c0.5,1.2,0.9,2.5,0.8,3.8c-0.2,2.1-1.6,3.9-3,5.5c-17.3,20.2-35.9,39.2-54.2,58.4
		c-11.8,12.6-25.8,24.2-36.1,37.8c-3.1,4-6.3,8.6-6,13.6c0.1,1.7,0.6,3.5,0.6,5.2c0,1.8-0.8,3.7-2.5,4.3c-1.7,0.6-3.6-0.5-4.5-2
		c-1-1.5-1.2-3.4-1.5-5.1c-1.8-10.2-6.4-18.7-12.8-26.6C84.3,303.4,70.5,290,57.6,276c-13.2-14.3-26-29.2-39.8-43
		c-0.7-0.8-1.5-1.6-2.5-1.9c-5.1-1.3-5,10.3-10.2,10.3c-3,0-4.2-3.8-4.3-6.8C0.7,231.7,0.9,228.8,1.3,225.9z"/>
	<path fill="#FFFFFF" stroke="#65BFB2" stroke-width="1.5" stroke-linejoin="round" stroke-miterlimit="10" d="M216.2,200"/>
	<path fill="#66C0B3" d="M118.7,96.7c2.6,1.3,3,5.5,0.7,7.3c-2.3,1.7-6.3,0.2-6.8-2.7s2.7-5.7,5.5-4.8"/>
	<path fill="#66C0B3" d="M213.2,200.1c5.9,1.1,7.1-9.8,0.3-8.1C209.6,193,208.8,199.2,213.2,200.1z"/>
	<path fill="#FFFFFF" stroke="#65BFB2" stroke-width="0.5" stroke-linejoin="round" stroke-miterlimit="10" d="M114.8,184.6
		c-8.7-6.5-18.4-11.9-27.5-14.1c-12.3-3-26.5-0.4-35.1,8.9c-19.1,20.8-9.8,47.2,7,65c12,12.7,25.9,24.8,42.9,29.1
		c20.1,5.2,42.9-7.2,46.5-28.4c2.6-15.6-4.4-31.6-15-43.4C128.5,196.1,122,190,114.8,184.6z"/>
</g>
</svg>
