<!-- Generator: Adobe Illustrator 18.1.0, SVG Export Plug-In  -->
<svg version="1.1"
	 xmlns="http://www.w3.org/2000/svg" xmlns:xlink="http://www.w3.org/1999/xlink" xmlns:a="http://ns.adobe.com/AdobeSVGViewerExtensions/3.0/"
	 x="0px" y="0px" width="194.441px" height="191.906px" viewBox="0 0 194.441 191.906" enable-background="new 0 0 194.441 191.906"
	 xml:space="preserve">
<defs>
</defs>
<g>
	<polygon fill="#F4F4F4" points="69.747,92.168 126.514,89.015 123.361,97.901 69.747,101.63 	"/>
	<path fill="#5E5F5F" d="M35.039,125.703c5.832,2.328,12.164,3.082,18.428,3.523c14.845,1.046,28.295-2.261,32.941-17.949
		c3.954-13.353,0.769-29.063-8.823-39.304c-16.392-17.5-47.576-9.182-56.839,12.196C14.176,99.333,19.136,119.356,35.039,125.703z"
		/>
	<path fill="#5E5F5F" d="M154.031,125.703c-5.832,2.328-12.164,3.082-18.428,3.523c-14.845,1.046-28.295-2.261-32.941-17.949
		c-3.954-13.353-0.769-29.063,8.823-39.304c16.392-17.5,47.576-9.182,56.839,12.196C174.894,99.333,169.933,119.356,154.031,125.703
		z"/>
	<g>
		<defs>
			<path id="SVGID_2_" d="M35.039,125.703c5.832,2.328,12.164,3.082,18.428,3.523c14.845,1.046,28.295-2.261,32.941-17.949
				c3.954-13.353,0.769-29.063-8.823-39.304c-16.392-17.5-47.576-9.182-56.839,12.196C14.176,99.333,19.136,119.356,35.039,125.703z
				"/>
		</defs>
		<clipPath id="SVGID_3_">
			<use xlink:href="#SVGID_2_"  overflow="visible"/>
		</clipPath>
		<g clip-path="url(#SVGID_3_)">
			
				<line fill="none" stroke="#B3B3B3" stroke-width="2.5407" stroke-miterlimit="10" x1="96.393" y1="96.724" x2="37.861" y2="151.301"/>
			
				<line fill="none" stroke="#B3B3B3" stroke-width="2.5407" stroke-miterlimit="10" x1="150.415" y1="33.992" x2="31.695" y2="144.688"/>
			
				<line fill="none" stroke="#B3B3B3" stroke-width="2.5407" stroke-miterlimit="10" x1="144.249" y1="27.38" x2="25.529" y2="138.075"/>
			
				<line fill="none" stroke="#B3B3B3" stroke-width="2.5407" stroke-miterlimit="10" x1="138.083" y1="20.767" x2="19.363" y2="131.463"/>
			
				<line fill="none" stroke="#B3B3B3" stroke-width="2.5407" stroke-miterlimit="10" x1="131.918" y1="14.154" x2="13.198" y2="124.85"/>
			
				<line fill="none" stroke="#B3B3B3" stroke-width="2.5407" stroke-miterlimit="10" x1="125.752" y1="7.542" x2="7.032" y2="118.238"/>
			
				<line fill="none" stroke="#B3B3B3" stroke-width="2.5407" stroke-miterlimit="10" x1="119.586" y1="0.929" x2="0.866" y2="111.625"/>
		</g>
	</g>
	<g>
		<defs>
			<path id="SVGID_1_" d="M154.031,125.703c-5.832,2.328-12.164,3.082-18.428,3.523c-14.845,1.046-28.295-2.261-32.941-17.949
				c-3.954-13.353-0.769-29.063,8.823-39.304c16.392-17.5,47.576-9.182,56.839,12.196
				C174.894,99.333,169.933,119.356,154.031,125.703z"/>
		</defs>
		<clipPath id="SVGID_4_">
			<use xlink:href="#SVGID_1_"  overflow="visible"/>
		</clipPath>
		<g clip-path="url(#SVGID_4_)">
			
				<line fill="none" stroke="#B3B3B3" stroke-width="2.5407" stroke-miterlimit="10" x1="187.409" y1="73.668" x2="68.689" y2="184.364"/>
			
				<line fill="none" stroke="#B3B3B3" stroke-width="2.5407" stroke-miterlimit="10" x1="181.243" y1="67.055" x2="62.523" y2="177.751"/>
			
				<line fill="none" stroke="#B3B3B3" stroke-width="2.5407" stroke-miterlimit="10" x1="175.077" y1="60.443" x2="56.358" y2="171.139"/>
			
				<line fill="none" stroke="#B3B3B3" stroke-width="2.5407" stroke-miterlimit="10" x1="168.912" y1="53.83" x2="50.192" y2="164.526"/>
			
				<line fill="none" stroke="#B3B3B3" stroke-width="2.5407" stroke-miterlimit="10" x1="162.746" y1="47.218" x2="97.256" y2="108.281"/>
			
				<line fill="none" stroke="#B3B3B3" stroke-width="2.5407" stroke-miterlimit="10" x1="156.58" y1="40.605" x2="96.393" y2="96.724"/>
			
				<line fill="none" stroke="#B3B3B3" stroke-width="2.5407" stroke-miterlimit="10" x1="193.574" y1="80.281" x2="74.855" y2="190.976"/>
		</g>
	</g>
	<g>
		<g>
			<path fill="#4C4C4D" d="M87.215,91.198c0.602,3.014,0.884,6.091,0.832,9.159l12.977-0.903c0.013-3.047,0.334-6.099,0.99-9.079
				L87.215,91.198z"/>
		</g>
		<g>
			<path fill="#4C4C4D" d="M58.269,132.095c0,0-0.001,0-0.002,0c-1.587,0-3.266-0.062-4.989-0.183
				c-6.272-0.442-12.944-1.197-19.237-3.708c-7.249-2.893-12.973-8.687-16.118-16.315c-3.701-8.976-3.57-19.739,0.353-28.791
				c5.941-13.711,21.022-23.287,36.675-23.287c9.63,0,18.366,3.665,24.6,10.32c10.085,10.767,13.791,27.217,9.44,41.909
				C85.049,125.347,74.713,132.095,58.269,132.095z M54.95,65.196c-13.571,0-26.62,8.242-31.733,20.043
				c-3.355,7.744-3.473,16.938-0.315,24.597c1.829,4.436,5.593,10.355,13.136,13.366c5.608,2.237,11.782,2.927,17.62,3.338
				c17.082,1.204,26.559-3.836,30.169-16.028c3.76-12.696,0.462-27.444-8.207-36.698C70.415,68.256,63.075,65.196,54.95,65.196z"/>
		</g>
		<g>
			<path fill="#4C4C4D" d="M130.803,132.095c-16.446,0-26.783-6.747-30.723-20.054c-4.351-14.692-0.646-31.142,9.439-41.909
				c6.234-6.655,14.97-10.32,24.6-10.32c15.653,0,30.734,9.576,36.675,23.287c3.922,9.052,4.054,19.814,0.353,28.791
				c-3.145,7.628-8.869,13.422-16.118,16.315c-6.293,2.511-12.965,3.266-19.236,3.708
				C134.068,132.033,132.389,132.095,130.803,132.095z M134.119,65.196c-8.125,0-15.465,3.06-20.669,8.617
				c-8.668,9.254-11.966,24.002-8.206,36.698c3.61,12.19,13.071,17.231,30.17,16.028c5.836-0.411,12.011-1.101,17.619-3.338
				c7.543-3.01,11.307-8.93,13.136-13.366c3.158-7.658,3.04-16.853-0.315-24.597C160.74,73.438,147.691,65.196,134.119,65.196z"/>
		</g>
	</g>
</g>
</svg>