<!-- Generator: Adobe Illustrator 18.1.0, SVG Export Plug-In  -->
<svg version="1.1"
	 xmlns="http://www.w3.org/2000/svg" xmlns:xlink="http://www.w3.org/1999/xlink" xmlns:a="http://ns.adobe.com/AdobeSVGViewerExtensions/3.0/"
	 x="0px" y="0px" width="351.298px" height="435.18px" viewBox="0 0 351.298 435.18" enable-background="new 0 0 351.298 435.18"
	 xml:space="preserve">
<defs>
</defs>
<g>
	<polygon fill="#FFE8C0" points="338.451,250.729 324.678,250.729 326.943,164.726 193.946,119.241 248.239,59.766 222.452,0 
		104.636,10.915 92.586,67.266 145.155,123.798 20.222,178.879 30.738,250.729 13.289,250.729 0,250.729 4.03,277.244 
		8.081,303.904 24.128,303.904 38.521,303.904 47.673,366.434 72.776,389.601 299.675,391.382 321.629,366.516 323.278,303.904 
		335.199,303.904 350.055,303.904 350.055,275.562 350.055,250.729 	"/>
	<polygon fill="#F4F4F4" points="137.934,264.767 235.483,259.347 230.063,274.617 137.934,281.025 	"/>
	<polygon opacity="0.5" fill="#ED1E70" points="101.644,142.982 20.222,178.879 30.738,250.729 104.636,179.105 	"/>
	<polygon opacity="0.5" fill="#ED1E70" points="326.943,164.726 282.275,149.45 260.412,179.105 324.678,250.729 	"/>
	<polygon fill="#ED1E70" points="193.946,119.241 248.239,59.766 222.452,0 104.636,10.915 92.586,67.266 145.155,123.798 
		73.998,155.17 104.636,179.105 260.412,179.105 282.401,149.493 	"/>
	<polygon fill="#ED1E70" points="282.401,149.493 260.412,179.105 254.801,196.856 247.405,179.105 235.483,188.373 
		212.721,179.105 	"/>
	<path fill="#FFFFFF" d="M78.293,322.392c10.022,4,20.902,5.296,31.666,6.054c25.509,1.797,48.622-3.886,56.605-30.844
		c6.795-22.946,1.321-49.942-15.161-67.54c-28.168-30.072-81.755-15.778-97.671,20.958
		C42.442,277.078,50.965,311.486,78.293,322.392z"/>
	<path fill="#FFFFFF" d="M282.766,322.392c-10.022,4-20.902,5.296-31.666,6.054c-25.509,1.797-48.622-3.886-56.605-30.844
		c-6.795-22.946-1.321-49.942,15.161-67.54c28.168-30.072,81.755-15.778,97.671,20.958
		C318.618,277.078,310.094,311.486,282.766,322.392z"/>
	<g>
		<defs>
			<path id="SVGID_2_" d="M78.293,322.392c10.022,4,20.902,5.296,31.666,6.054c25.509,1.797,48.622-3.886,56.605-30.844
				c6.795-22.946,1.321-49.942-15.161-67.54c-28.168-30.072-81.755-15.778-97.671,20.958
				C42.442,277.078,50.965,311.486,78.293,322.392z"/>
		</defs>
		<clipPath id="SVGID_3_">
			<use xlink:href="#SVGID_2_"  overflow="visible"/>
		</clipPath>
		<g clip-path="url(#SVGID_3_)">
			
				<line fill="none" stroke="#B3B3B3" stroke-width="1.7017" stroke-miterlimit="10" x1="183.722" y1="272.596" x2="83.141" y2="366.379"/>
			
				<line fill="none" stroke="#B3B3B3" stroke-width="1.7017" stroke-miterlimit="10" x1="276.553" y1="164.798" x2="72.546" y2="355.016"/>
			
				<line fill="none" stroke="#B3B3B3" stroke-width="1.7017" stroke-miterlimit="10" x1="265.958" y1="153.435" x2="61.951" y2="343.653"/>
			
				<line fill="none" stroke="#B3B3B3" stroke-width="1.7017" stroke-miterlimit="10" x1="255.362" y1="142.071" x2="51.356" y2="332.29"/>
			
				<line fill="none" stroke="#B3B3B3" stroke-width="1.7017" stroke-miterlimit="10" x1="244.767" y1="130.708" x2="40.761" y2="320.927"/>
			
				<line fill="none" stroke="#B3B3B3" stroke-width="1.7017" stroke-miterlimit="10" x1="234.172" y1="119.345" x2="30.165" y2="309.564"/>
			
				<line fill="none" stroke="#B3B3B3" stroke-width="1.7017" stroke-miterlimit="10" x1="223.577" y1="107.982" x2="19.57" y2="298.201"/>
		</g>
	</g>
	<g>
		<defs>
			<path id="SVGID_1_" d="M282.766,322.392c-10.022,4-20.902,5.296-31.666,6.054c-25.509,1.797-48.622-3.886-56.605-30.844
				c-6.795-22.946-1.321-49.942,15.161-67.54c28.168-30.072,81.755-15.778,97.671,20.958
				C318.618,277.078,310.094,311.486,282.766,322.392z"/>
		</defs>
		<clipPath id="SVGID_4_">
			<use xlink:href="#SVGID_1_"  overflow="visible"/>
		</clipPath>
		<g clip-path="url(#SVGID_4_)">
			
				<line fill="none" stroke="#B3B3B3" stroke-width="1.7017" stroke-miterlimit="10" x1="340.123" y1="232.976" x2="136.116" y2="423.195"/>
			
				<line fill="none" stroke="#B3B3B3" stroke-width="1.7017" stroke-miterlimit="10" x1="329.528" y1="221.613" x2="125.521" y2="411.831"/>
			
				<line fill="none" stroke="#B3B3B3" stroke-width="1.7017" stroke-miterlimit="10" x1="318.933" y1="210.25" x2="114.926" y2="400.468"/>
			
				<line fill="none" stroke="#B3B3B3" stroke-width="1.7017" stroke-miterlimit="10" x1="308.338" y1="198.887" x2="104.331" y2="389.105"/>
			
				<line fill="none" stroke="#B3B3B3" stroke-width="1.7017" stroke-miterlimit="10" x1="297.743" y1="187.524" x2="185.205" y2="292.455"/>
			
				<line fill="none" stroke="#B3B3B3" stroke-width="1.7017" stroke-miterlimit="10" x1="287.148" y1="176.161" x2="183.722" y2="272.596"/>
			
				<line fill="none" stroke="#B3B3B3" stroke-width="1.7017" stroke-miterlimit="10" x1="350.718" y1="244.339" x2="146.711" y2="434.558"/>
		</g>
	</g>
	<path opacity="0.5" fill="#ED1E70" d="M83.722,348.399c-3.855-11.614-22.055-9.578-23.464,2.393
		c-0.843,7.157,6.054,14.162,13.223,13.431C80.651,363.493,85.992,355.24,83.722,348.399z"/>
	<path opacity="0.5" fill="#ED1E70" d="M289.235,341.073c-3.815,1.44-6.932,4.735-7.519,9.718
		c-0.843,7.157,6.053,14.163,13.223,13.432c7.17-0.731,12.511-8.984,10.241-15.824C302.748,341.072,295.152,338.84,289.235,341.073z
		"/>
	<g>
		<path fill="#898989" d="M167.95,263.099c1.035,5.179,1.519,10.467,1.43,15.738l22.299-1.551c0.022-5.236,0.574-10.481,1.702-15.6
			L167.95,263.099z"/>
		<path fill="none" stroke="#898989" stroke-width="7.8701" stroke-miterlimit="10" d="M78.293,322.392
			c10.022,4,20.902,5.296,31.666,6.054c25.509,1.797,48.622-3.886,56.605-30.844c6.795-22.946,1.321-49.942-15.161-67.54
			c-28.168-30.072-81.755-15.778-97.671,20.958C42.442,277.078,50.965,311.486,78.293,322.392z"/>
		<path fill="none" stroke="#898989" stroke-width="7.8701" stroke-miterlimit="10" d="M282.766,322.392
			c-10.022,4-20.902,5.296-31.666,6.054c-25.509,1.797-48.622-3.886-56.605-30.844c-6.795-22.946-1.321-49.942,15.161-67.54
			c28.168-30.072,81.755-15.778,97.671,20.958C318.618,277.078,310.094,311.486,282.766,322.392z"/>
	</g>
</g>
</svg>