<!-- Generator: Adobe Illustrator 18.1.0, SVG Export Plug-In  -->
<svg version="1.1"
	 xmlns="http://www.w3.org/2000/svg" xmlns:xlink="http://www.w3.org/1999/xlink" xmlns:a="http://ns.adobe.com/AdobeSVGViewerExtensions/3.0/"
	 x="0px" y="0px" width="99.358px" height="31.764px" viewBox="0 0 99.358 31.764" enable-background="new 0 0 99.358 31.764"
	 xml:space="preserve">
<defs>
</defs>
<g opacity="0.5">
	<path fill="#ED1E70" d="M84.225,31.089c-3.907,0.932-7.957,0.774-12.296,0.275c-4.823-0.554-9.693-1.396-14.056-3.525
		c-7.141-3.485-12.683-13.608-8.569-21.231c2.238-4.147,7.044-6.525,11.755-6.606s9.283,1.876,13.077,4.671
		c2.389,1.761,4.557,3.9,5.966,6.513c1.296,2.404,1.966,5.216,3.866,7.178c3.774,3.894,12.358,2.968,15.389-1.37
		c-3.363,4.812-3.589,8.386-9.257,11.724C88.166,29.857,86.214,30.615,84.225,31.089z"/>
	<path fill="#ED1E70" d="M15.133,31.089c3.907,0.932,7.957,0.774,12.296,0.275c4.823-0.554,9.693-1.396,14.056-3.525
		c7.141-3.485,12.683-13.608,8.569-21.231c-2.238-4.147-7.044-6.525-11.755-6.606s-9.283,1.876-13.077,4.671
		c-2.389,1.761-4.557,3.9-5.966,6.513c-1.296,2.404-1.966,5.216-3.866,7.178C11.615,22.258,3.031,21.332,0,16.994
		c3.363,4.812,3.589,8.386,9.257,11.724C11.192,29.857,13.144,30.615,15.133,31.089z"/>
</g>
</svg>