<!-- Generator: Adobe Illustrator 18.1.0, SVG Export Plug-In  -->
<svg version="1.1"
	 xmlns="http://www.w3.org/2000/svg" xmlns:xlink="http://www.w3.org/1999/xlink" xmlns:a="http://ns.adobe.com/AdobeSVGViewerExtensions/3.0/"
	 x="0px" y="0px" width="94.61px" height="76.833px" viewBox="0 0 94.61 76.833" enable-background="new 0 0 94.61 76.833"
	 xml:space="preserve">
<defs>
</defs>
<g>
	<path fill="#FFFFFF" stroke="#65BFB2" stroke-width="0.7817" stroke-linejoin="round" stroke-miterlimit="10" d="M52.008,57.075
		c-1.412-0.085-2.814-0.611-4.15-1.768c-2.895-2.507-3.983-6.48-4.67-10.248c-1.865-10.229-2.002-21.82,6.995-28.774
		c3.653-2.823,8.409-4.287,12.981-3.656c2.63,0.363,5.192,1.391,7.844,1.255c7.076-0.365,9.867-7.612,14.98-11.221
		c2.441-1.724,6.14-2.256,8.231-0.121c-4.452,2.306-7.477,6.699-9.479,11.295c-2.002,4.596-3.153,9.516-4.952,14.195
		c-3.6,9.366-9.798,17.662-17.492,24.103C59.454,54.516,55.696,57.298,52.008,57.075z"/>
	<path fill="#FFFFFF" stroke="#65BFB2" stroke-width="0.7817" stroke-linejoin="round" stroke-miterlimit="10" d="M13.676,14.274
		c-0.454-1.766-0.911-3.548-0.979-5.37s0.284-3.711,1.323-5.209c1.285-1.852,3.496-2.906,5.728-3.217
		c0.957-0.133,1.954-0.142,2.865,0.18c1.091,0.385,1.974,1.212,2.679,2.129c1.908,2.481,2.695,5.793,2.106,8.867"/>
	<path fill="#FFFFFF" stroke="#65BFB2" stroke-width="0.7817" stroke-linejoin="round" stroke-miterlimit="10" d="M46.812,10.489
		c-0.048-0.484-0.088-0.97-0.093-1.456c-0.028-3.219,1.726-6.491,4.615-7.911c2.89-1.42,6.794-0.656,8.655,1.971
		c1.782,2.514,1.466,5.899,1.073,8.956"/>
	<path fill="#FFFFFF" stroke="#65BFB2" stroke-width="0.7817" stroke-linejoin="round" stroke-miterlimit="10" d="M11.852,12.649
		c0.181-0.16,0.376-0.313,0.588-0.458c1.418-0.972,3.135-1.39,4.817-1.745C29.157,7.933,41.439,7.637,53.57,8.487
		c2.944,0.206,6.014,0.523,8.492,2.125c4.323,2.795,3.63,8.898,3.853,13.374c-18.29,2.008-36.739,1.907-55.139,1.802
		C10.565,21.741,8.3,15.799,11.852,12.649z"/>
	<path fill="#FFFFFF" stroke="#65BFB2" stroke-width="0.6254" stroke-linejoin="round" stroke-miterlimit="10" d="M46.4,21.14
		c0.875-1.762,1.751-3.523,2.626-5.285c0.452-0.315,0.992,0.253,1.25,0.74c0.495,0.935,0.991,1.869,1.486,2.804
		c0.474-1.476,1.149-2.888,2.001-4.184c0.104-0.158,0.239-0.331,0.428-0.337c0.211-0.006,0.361,0.196,0.469,0.378
		c1.062,1.783,1.907,3.696,2.509,5.682"/>
	<path fill="#FFFFFF" stroke="#65BFB2" stroke-width="0.7817" stroke-linejoin="round" stroke-miterlimit="10" d="M21.633,69.798
		c-1.005-2.309-2.926-5.547-4.102-7.827c-2.1-4.071-3.955-8.275-5.422-12.617c-2.893-8.563-4.141-17.57-3.655-26.597
		c0.025-0.469,0.069-0.959,0.316-1.358c0.312-0.504,0.888-0.772,1.439-0.994c7.589-3.055,46.842-4.974,55.664-0.972
		c3.492,1.584,3.175,8.466,3.17,11.619c-0.008,4.469-0.735,8.922-1.86,13.239c-2.677,10.277-8.533,20.653-11.778,30.73
		c-0.201,0.624-0.835,1.393-1.334,0.969c-0.168-0.143-0.223-0.376-0.268-0.593c-0.371-1.79-0.134-4.534-2.277-4.88
		c-2.539-0.41-4.52-0.078-7.095-0.09c-5.16-0.023-9.394,0.048-14.541,0.453c-1.13,0.089-2.343,0.214-3.203,0.954
		c-0.998,0.859,0.257,4.902-1.514,4.592c-0.437-0.077-0.698-0.516-0.9-0.911C23.307,73.619,22.465,71.708,21.633,69.798z"/>
	<path fill="#FFFFFF" stroke="#65BFB2" stroke-width="0.7817" stroke-linejoin="round" stroke-miterlimit="10" d="M60.83,12.253"/>
	<path fill="#66C0B3" d="M16.42,14.606c0.86-0.299,1.889,0.542,1.766,1.445c-0.123,0.902-1.34,1.438-2.088,0.92
		c-0.749-0.518-0.675-1.846,0.126-2.279"/>
	<path fill="#66C0B3" d="M60.177,15.728c1.532-1.06-0.626-3.711-1.736-1.831C57.804,14.976,59.023,16.526,60.177,15.728z"/>
	<g>
		<path fill="#FFFFFF" stroke="#65BFB2" stroke-width="0.7817" stroke-linejoin="round" stroke-miterlimit="10" d="M15.357,48.295
			c-0.848-2.98-3.129-5.048-5.476-7.091c-1.378-1.199-2.778-2.389-3.925-3.749c-3.843-4.558-2.442-8.985,2.411-12.07
			c0.015-0.876,0.04-1.752,0.088-2.628c0.021-0.394,0.063-0.798,0.219-1.155c-0.543,0.231-1.018,0.632-1.453,1.041
			c-8.315,7.817-8.966,19.1-2.338,28.186c1.894,2.596,5.132,5.061,8.061,3.738c0.331-0.15,0.629-0.346,0.899-0.572
			C15.386,52.701,15.925,50.294,15.357,48.295z"/>
		<path fill="#FFFFFF" stroke="#65BFB2" stroke-width="0.7817" stroke-linejoin="round" stroke-miterlimit="10" d="M69.352,22.643
			c-0.434-0.408-0.908-0.808-1.448-1.039c0.578,1.214,0.87,2.735,1.013,4.259c4.271,3.055,5.347,7.265,1.699,11.592
			c-0.738,0.875-1.581,1.678-2.455,2.46c-2.8,2.505-5.921,4.776-6.946,8.381c-0.668,2.349,0.188,5.267,2.414,6.272
			c0.01,0.005,0.021,0.007,0.032,0.012c2.921,1.291,6.142-1.163,8.03-3.75C78.318,41.743,77.668,30.46,69.352,22.643z"/>
	</g>
	<path fill="#FFFFFF" stroke="#65BFB2" stroke-width="0.469" stroke-linejoin="round" stroke-miterlimit="10" d="M63.874,35.208
		c-1.209,3.725-3.546,7.304-6.016,9.939c-4.804,5.127-11.984,8.022-19.026,7.337c-6.082-0.592-12.147-2.532-16.945-6.317
		c-4.351-3.432-11.394-13.023-7.696-18.953c0.62-0.994,1.745-1.539,2.83-1.98c11.647-4.737,26.903-3.886,39.21-2.554
		c4.631,0.501,8.232,1.684,8.485,6.892C64.806,31.42,64.483,33.333,63.874,35.208z"/>
	<path fill="#FFFFFF" stroke="#65BFB2" stroke-width="0.469" stroke-linejoin="round" stroke-miterlimit="10" d="M59.875,32.319
		c0,0,0.014-0.03,0.042-0.09c0.022-0.053,0.054-0.133,0.097-0.237c0.085-0.22,0.205-0.56,0.327-1.016
		c0.121-0.451,0.275-1.023,0.333-1.648c0.03-0.294,0.023-0.659-0.041-0.781c-0.012-0.027-0.027-0.024-0.007,0.029
		c0.015,0.024,0.019,0.053,0.078,0.109l-0.064-0.051c-0.025-0.02-0.005,0.007-0.005,0.007c-0.011,0.011-0.106-0.025-0.228-0.035
		c-0.127-0.015-0.302-0.02-0.511-0.016c-0.24,0.005-0.487,0.01-0.739,0.015c-0.519,0.008-1.063,0.016-1.629,0.024
		c-1.133,0.009-2.358,0.019-3.667,0.029c-10.259,0.083-20.498-0.746-30.733-0.276c-0.637,0.029-1.293,0.066-1.866,0.346
		c-1.46,0.712-1.069,2.137-1.139,3.417c-0.028,0.511,0.327,0.982,0.77,1.238c0.443,0.257,0.962,0.34,1.468,0.412
		c5.584,0.797,11.476,0.294,17.121,0.47c6.085,0.19,12.166,0.508,18.238,0.953c0.789,0.058,1.639,0.142,2.233,0.665
		c0.61,0.536,0.8,1.43,0.685,2.234c-0.37,2.576-2.366,4.591-4.332,6.114c-0.409,0.317-0.822,0.597-1.232,0.873
		c-0.819,0.557-1.662,1.062-2.513,1.521c-3.404,1.847-7.019,2.867-10.392,3.102c-1.686,0.117-3.312,0.077-4.831-0.131
		c-1.476-0.191-2.901-0.465-4.202-0.794c-2.617-0.653-4.814-1.611-6.484-2.614c-1.42-0.842-3.364-1.906-3.982-3.504
		c-0.055-0.143-0.105-0.296-0.074-0.446c0.146-0.692,1.333-0.724,1.795-0.481c0.434,0.229,0.754,0.619,1.089,0.978
		c2.463,2.641,6.401,3.704,9.88,4.048c4.3,0.426,8.668-0.271,12.739-1.665c1.685-0.577,3.427-1.187,4.718-2.413
		c0.656-0.622,1.177-1.673,0.623-2.388c-0.376-0.486-1.069-0.562-1.682-0.59c-5.086-0.234-10.063,0.471-15.136,0.504
		c-4.809,0.031-9.619-0.13-14.416-0.481c-0.937-0.069-1.9-0.151-2.743-0.567c-1.136-0.56-1.922-1.674-2.356-2.864
		c-0.765-2.097-0.677-4.022-0.678-6.207c0-0.428,0.001-0.865,0.137-1.271c0.225-0.67,0.79-1.172,1.397-1.534
		c2.792-1.665,6.687-1.968,9.871-2.366c7.197-0.899,14.682-0.731,21.91-0.305c3.698,0.218,7.434,0.443,10.984,1.5
		c0.563,0.168,1.141,0.368,1.563,0.777c0.748,0.725,0.414,1.849,0.223,2.745c-0.209,0.802-0.463,1.401-0.697,1.885
		c-0.237,0.479-0.447,0.832-0.6,1.072c-0.082,0.122-0.143,0.214-0.185,0.276c-0.039,0.053-0.059,0.08-0.059,0.08
		c-0.21,0.286-0.613,0.348-0.899,0.137C59.825,32.925,59.748,32.591,59.875,32.319z"/>
</g>
</svg>