<!-- Generator: Adobe Illustrator 18.1.0, SVG Export Plug-In  -->
<svg version="1.1"
	 xmlns="http://www.w3.org/2000/svg" xmlns:xlink="http://www.w3.org/1999/xlink" xmlns:a="http://ns.adobe.com/AdobeSVGViewerExtensions/3.0/"
	 x="0px" y="0px" width="86.003px" height="83.913px" viewBox="0 0 86.003 83.913" enable-background="new 0 0 86.003 83.913"
	 xml:space="preserve">
<defs>
</defs>
<g>
	<g>
		<path fill="#FFFFFF" stroke="#65BFB2" stroke-width="0.7817" stroke-linejoin="round" stroke-miterlimit="10" d="M69.979,1.032
			L61.21,23.274l6.286,54.327c0.132,1.139,1.096,1.998,2.243,1.998h7.313c1.041,0,1.905-0.805,1.979-1.843l4.058-57.074
			L71.799,0.901C71.378,0.164,70.29,0.242,69.979,1.032z"/>
		<path fill="#FFFFFF" stroke="#65BFB2" stroke-width="0.469" stroke-linejoin="round" stroke-miterlimit="10" d="M61.21,23.274
			l6.289,54.354c0.13,1.124,1.082,1.971,2.213,1.971h1.692l-5.143-69.139L61.21,23.274z"/>
		<path fill="#FFFFFF" stroke="#65BFB2" stroke-width="0.469" stroke-linejoin="round" stroke-miterlimit="10" d="M75.942,79.6
			h1.292c0.938,0,1.717-0.725,1.783-1.661l4.071-57.256l-5.111-8.956L75.942,79.6z"/>
		<path fill="#FFFFFF" stroke="#65BFB2" stroke-width="0.469" stroke-linejoin="round" stroke-miterlimit="10" d="M83.089,20.683
			L71.799,0.901c-0.421-0.738-1.509-0.66-1.82,0.13L61.21,23.274l0.006,0.049c3.494-2.074,6.891-4.31,10.172-6.706
			c1.199,1.947,2.398,3.894,3.597,5.84c0.291,0.472,0.635,0.985,1.174,1.114c0.442,0.106,0.896-0.076,1.313-0.256
			c1.881-0.812,3.748-1.656,5.608-2.515L83.089,20.683z"/>
		<path fill="#FFFFFF" stroke="#65BFB2" stroke-width="0.469" stroke-linejoin="round" stroke-miterlimit="10" d="M67.406,7.559
			c2.144-0.597,4.598-1.438,6.914-2.242l-2.52-4.416c-0.421-0.738-1.509-0.66-1.82,0.13L67.406,7.559z"/>
	</g>
	<path fill="none" stroke="#65BFB2" stroke-width="0.7817" stroke-linejoin="round" stroke-miterlimit="10" d="M69.979,1.032
		L61.21,23.274l6.286,54.327c0.132,1.139,1.096,1.998,2.243,1.998h7.313c1.041,0,1.905-0.805,1.979-1.843l4.058-57.074L71.799,0.901
		C71.378,0.164,70.29,0.242,69.979,1.032z"/>
	<path fill="#FFFFFF" stroke="#65BFB2" stroke-width="0.7817" stroke-linejoin="round" stroke-miterlimit="10" d="M78.803,40.743
		c0.674,2.225,2.006,3.94,4.188,3.101c3.505-1.348,2.679-7.172,2.099-10.001c-0.12-0.584-0.289-1.195-0.721-1.607
		c-1.662-1.586-5.273,0.728-5.842,2.444C78.115,35.926,78.147,38.576,78.803,40.743z"/>
	<path fill="#FFFFFF" stroke="#65BFB2" stroke-width="0.7817" stroke-linejoin="round" stroke-miterlimit="10" d="M10.29,22.708
		c-0.454-1.766-0.911-3.548-0.979-5.37c-0.068-1.822,0.284-3.711,1.323-5.209c1.285-1.852,3.496-2.906,5.728-3.217
		c0.957-0.133,1.954-0.142,2.865,0.18c1.091,0.385,1.974,1.212,2.679,2.129c1.908,2.481,2.695,5.793,2.106,8.867"/>
	<path fill="#FFFFFF" stroke="#65BFB2" stroke-width="0.7817" stroke-linejoin="round" stroke-miterlimit="10" d="M43.425,18.923
		c-0.048-0.484-0.088-0.97-0.093-1.456c-0.028-3.219,1.726-6.491,4.615-7.911c2.89-1.42,6.794-0.656,8.655,1.971
		c1.782,2.514,1.466,5.899,1.073,8.956"/>
	<path fill="#FFFFFF" stroke="#65BFB2" stroke-width="0.7817" stroke-linejoin="round" stroke-miterlimit="10" d="M8.466,21.083
		c0.181-0.16,0.376-0.313,0.588-0.458c1.418-0.972,3.135-1.39,4.817-1.745c11.899-2.513,24.181-2.809,36.313-1.958
		c2.944,0.206,6.014,0.523,8.492,2.125c4.323,2.795,3.63,8.898,3.853,13.374c-18.29,2.008-36.739,1.907-55.139,1.802
		C7.179,30.175,4.914,24.233,8.466,21.083z"/>
	<path fill="#FFFFFF" stroke="#65BFB2" stroke-width="0.6254" stroke-linejoin="round" stroke-miterlimit="10" d="M45.341,29.574
		c0.875-1.762,1.751-3.523,2.626-5.285c0.452-0.315,0.992,0.253,1.25,0.74c0.495,0.935,0.991,1.869,1.486,2.804
		c0.474-1.476,1.149-2.888,2.001-4.184c0.104-0.158,0.239-0.331,0.428-0.337c0.211-0.006,0.361,0.196,0.469,0.378
		c1.062,1.783,1.907,3.696,2.509,5.682"/>
	<path fill="#FFFFFF" stroke="#65BFB2" stroke-width="0.7817" stroke-linejoin="round" stroke-miterlimit="10" d="M7.966,82.515
		C6.122,67.763,5.911,52.879,5.161,38.039c-0.1-1.971-0.199-3.946-0.093-5.917c0.025-0.469,0.069-0.959,0.316-1.359
		c0.312-0.504,0.888-0.772,1.439-0.994c7.59-3.056,46.853-4.974,55.668-0.971c0.374,0.17,0.753,0.358,1.024,0.667
		c0.437,0.497,0.516,1.204,0.572,1.864c0.712,8.371,0.867,16.778,0.87,25.175c0.003,7.838-0.767,15.635-0.61,23.395
		c0.022,1.089-0.247,2.531-1.33,2.64c-0.979,0.099-1.592-1.075-1.637-2.057s0.166-2.052-0.352-2.889
		c-0.676-1.093-2.198-1.198-3.483-1.179C42.459,76.644,26.993,76.645,12,78.386c-0.395,0.046-0.808,0.101-1.135,0.328
		c-0.899,0.622-0.616,1.976-0.65,3.069c-0.034,1.093-1.389,2.322-2.027,1.433C8.043,83.016,8.002,82.76,7.966,82.515z"/>
	<path fill="#FFFFFF" stroke="#65BFB2" stroke-width="0.7817" stroke-linejoin="round" stroke-miterlimit="10" d="M57.443,20.687"/>
	<path fill="#66C0B3" d="M16.292,23.04c0.86-0.299,1.889,0.542,1.766,1.445c-0.123,0.902-1.34,1.438-2.088,0.92
		s-0.675-1.846,0.126-2.279"/>
	<path fill="#66C0B3" d="M59.118,24.162c1.532-1.06-0.626-3.711-1.736-1.831C56.745,23.41,57.964,24.96,59.118,24.162z"/>
	<path fill="#FFFFFF" stroke="#65BFB2" stroke-width="0.7817" stroke-linejoin="round" stroke-miterlimit="10" d="M5.999,58.844
		c-3.174-5.941-1.992-13.88,1.079-19.619c0.411-0.768,3.031-6.941-0.285-4.635c-2.054,1.428-2.581,5.713-3.292,7.979
		c-1.04,3.316-1.88,6.697-2.464,10.123c-1.031,6.059-0.94,12.41,1.101,18.207c1.068,3.031,3.46,6.323,6.646,5.898
		c2.421-0.323,4.08-2.871,4.115-5.313c0.035-2.442-1.184-4.729-2.62-6.704S7.15,60.998,5.999,58.844z"/>
	<path fill="#FFFFFF" stroke="#65BFB2" stroke-width="0.469" stroke-linejoin="round" stroke-miterlimit="10" d="M36.447,42.794
		c-3.36,0.513-6.685,1.476-9.178,3.028c-3.361,2.093-5.911,5.825-5.706,9.779c0.457,8.831,8.373,12.53,16.02,12.685
		c5.474,0.111,11.197-0.349,15.89-3.167c5.565-3.342,7.809-11.149,3.861-16.593c-2.907-4.01-8.021-5.941-12.969-6.165
		C41.998,42.253,39.211,42.371,36.447,42.794z"/>
</g>
</svg>