<?xml version="1.0" encoding="utf-8"?>
<!-- Generator: Adobe Illustrator 18.1.0, SVG Export Plug-In . SVG Version: 6.00 Build 0)  -->
<!DOCTYPE svg PUBLIC "-//W3C//DTD SVG 1.1//EN" "http://www.w3.org/Graphics/SVG/1.1/DTD/svg11.dtd">
<svg version="1.1" id="Layer_1" xmlns="http://www.w3.org/2000/svg" xmlns:xlink="http://www.w3.org/1999/xlink" x="0px" y="0px"
	 viewBox="0 0 612 100" enable-background="new 0 0 612 100" xml:space="preserve">
<g>
	<path fill="#E8F5F5" stroke="#E5E5E5" stroke-miterlimit="10" d="M38.9,9.9C38.9,9.9,38.9,10,38.9,9.9
		c71.3-1.2,476.1,4.9,547.4,4.9l11.1,77.1H35.8c1.4,0.1,0-5.3,0.4-14.1c0.1-1.6,0.1-3.2-0.4-4.6c-0.7-2.1-2.4-3.6-4-5
		c-5.6-5-11.1-10-16.7-15c6.4-4.6,12.7-9.2,19.1-13.8c1.4-1,2.9-2.1,3.8-3.7c0.9-1.7,1-3.8,1-5.8C38.9,19.9,38.9,19.9,38.9,9.9z"/>
	<g>
		<g>
			<g>
				
					<path fill="none" stroke="#ED1E70" stroke-width="2.8" stroke-linecap="round" stroke-linejoin="round" stroke-miterlimit="10" d="
					M360.4,44.6c1.9,7.3,2.9,14.9,3.2,22.4"/>
				
					<path fill="none" stroke="#ED1E70" stroke-width="2.8" stroke-linecap="round" stroke-linejoin="round" stroke-miterlimit="10" d="
					M358.4,32.1c0,0.3,0,0.5,0,0.8"/>
			</g>
			<g>
				
					<path fill="none" stroke="#ED1E70" stroke-width="2.8" stroke-linecap="round" stroke-linejoin="round" stroke-miterlimit="10" d="
					M386.4,44.1c-0.1,8.3,0.4,16.6,1.4,24.9"/>
				
					<path fill="none" stroke="#ED1E70" stroke-width="2.8" stroke-linecap="round" stroke-linejoin="round" stroke-miterlimit="10" d="
					M386.9,58.6c0.1-3.4,1.4-6.8,4.3-8.6c0.7-0.4,1.4-0.8,2.2-0.7c1.5,0.2,2.3,1.7,2.9,3.1c1.5,3.7,2.8,7.6,4,11.5
					c0.4-4.1,1.3-8.2,2.4-12.2c0.3-0.9,0.7-1.9,1.6-2.1c1.2-0.3,2.2,1,2.7,2.1c2.3,5,4,10.2,4.9,15.6"/>
			</g>
			<g>
				
					<path fill="none" stroke="#ED1E70" stroke-width="2.8" stroke-linecap="round" stroke-linejoin="round" stroke-miterlimit="10" d="
					M423.7,49.1c-0.9-1.1-1.8-1.3-3.1-0.6c-1.3,0.7-6.3,4-4.8,11.3c0.6,2.8,6.2,6.5,9.9,2.7"/>
				
					<path fill="none" stroke="#ED1E70" stroke-width="2.8" stroke-linecap="round" stroke-linejoin="round" stroke-miterlimit="10" d="
					M423.5,43.6c0.3,7.6,1.6,15.2,3.7,22.5"/>
			</g>
			<g>
				
					<path fill="none" stroke="#ED1E70" stroke-width="2.8" stroke-linecap="round" stroke-linejoin="round" stroke-miterlimit="10" d="
					M430.1,33.8c0.7,11.3,1.9,22.5,3.6,33.7"/>
				
					<path fill="none" stroke="#ED1E70" stroke-width="2.8" stroke-linecap="round" stroke-linejoin="round" stroke-miterlimit="10" d="
					M445.4,46.6c-4.5,2.8-9,5.6-13.5,8.4c5.5,5.5,11.2,10.9,16.9,16.1"/>
			</g>
			
				<path fill="none" stroke="#ED1E70" stroke-width="2.8" stroke-linecap="round" stroke-linejoin="round" stroke-miterlimit="10" d="
				M444.8,54.2c4.4,0.2,11.7,0.2,16.1,0.3c-0.1-2.7-0.1-5.5-1.5-7.8c-1.4-2.3-4.5-3.8-6.8-2.5c-1.1,0.6-1.8,1.7-2.4,2.8
				c-1.9,3.7-2.4,8.3-0.6,12c1.9,3.7,6.4,6.2,10.4,4.9"/>
			<g>
				
					<path fill="none" stroke="#ED1E70" stroke-width="2.8" stroke-linecap="round" stroke-linejoin="round" stroke-miterlimit="10" d="
					M481.7,50.5c5.3-0.8,10.7-1.1,16-0.7"/>
				
					<path fill="none" stroke="#ED1E70" stroke-width="2.8" stroke-linecap="round" stroke-linejoin="round" stroke-miterlimit="10" d="
					M487.8,29c0.4,13.7,1.6,27.3,3.6,40.8"/>
			</g>
			<g>
				
					<path fill="none" stroke="#ED1E70" stroke-width="2.8" stroke-linecap="round" stroke-linejoin="round" stroke-miterlimit="10" d="
					M500.9,29.7c0.7,12.3,1,24.6,0.9,36.9"/>
				
					<path fill="none" stroke="#ED1E70" stroke-width="2.8" stroke-linecap="round" stroke-linejoin="round" stroke-miterlimit="10" d="
					M501.9,58.6c0.2-2.1-0.7-5.1,0.5-6.8c1.2-1.7,3.8-2.6,5.5-1.4c1.2,0.8,1.6,2.3,1.9,3.7c1,4.4,1.5,8.8,1.5,13.3"/>
			</g>
			<g>
				
					<path fill="none" stroke="#ED1E70" stroke-width="2.8" stroke-linecap="round" stroke-linejoin="round" stroke-miterlimit="10" d="
					M517.5,46.5c0,5.6,0.5,11.3,1.4,16.9"/>
				
					<path fill="none" stroke="#ED1E70" stroke-width="2.8" stroke-linecap="round" stroke-linejoin="round" stroke-miterlimit="10" d="
					M519.1,36.1c0,0.3,0.1,0.5,0.1,0.8"/>
			</g>
			<g>
				
					<path fill="none" stroke="#ED1E70" stroke-width="2.8" stroke-linecap="round" stroke-linejoin="round" stroke-miterlimit="10" d="
					M525.3,48.1c1.5,5.7,2.3,11.7,2.4,17.6"/>
				
					<path fill="none" stroke="#ED1E70" stroke-width="2.8" stroke-linecap="round" stroke-linejoin="round" stroke-miterlimit="10" d="
					M527.2,57.5c-0.8-4,2.8-8.9,6.6-10.5c0.5-0.2,1.1-0.4,1.6-0.2c0.8,0.3,1.1,1.3,1.3,2.1c1.1,5.3,1.6,10.8,1.4,16.2"/>
			</g>
			<g>
				
					<path fill="none" stroke="#ED1E70" stroke-width="2.8" stroke-linecap="round" stroke-linejoin="round" stroke-miterlimit="10" d="
					M553.4,45.5c-0.8-2.6-3.5-2.3-5.6-0.7c-2.2,1.6-3,4.5-3.4,7.2c-0.4,3-0.4,6.3,1.6,8.6c2,2.2,6.9,1.9,7.7-1"/>
				
					<path fill="none" stroke="#ED1E70" stroke-width="2.8" stroke-linecap="round" stroke-linejoin="round" stroke-miterlimit="10" d="
					M553.5,39.1c0.5,13.9,1,19.3,1.5,33.2c0.2,4.7-0.9,10.9-5.6,11.5"/>
			</g>
			
				<path fill="none" stroke="#ED1E70" stroke-width="2.8" stroke-linecap="round" stroke-linejoin="round" stroke-miterlimit="10" d="
				M573.4,47.6c-1.7-4.1-7.5-5.9-11.2-3.5c-0.8,0.5-1.5,1.2-1.8,2.2c-0.5,1.9,1.1,3.7,2.7,4.9c2,1.6,4.1,3,5.4,5.1s1.8,5.1,0.2,7
				c-1.6,2-5.3,1.8-6.1-0.6"/>
		</g>
		<g>
			<g>
				
					<path fill="none" stroke="#ED1E70" stroke-width="2.8" stroke-linecap="round" stroke-linejoin="round" stroke-miterlimit="10" d="
					M62.9,44.6c1.9,7.3,2.9,14.9,3.2,22.4"/>
				
					<path fill="none" stroke="#ED1E70" stroke-width="2.8" stroke-linecap="round" stroke-linejoin="round" stroke-miterlimit="10" d="
					M60.9,32.2c0,0.3,0,0.5,0,0.8"/>
			</g>
			<g>
				
					<path fill="none" stroke="#ED1E70" stroke-width="2.8" stroke-linecap="round" stroke-linejoin="round" stroke-miterlimit="10" d="
					M184.2,50.6c5.3-0.8,10.7-1.1,16-0.7"/>
				
					<path fill="none" stroke="#ED1E70" stroke-width="2.8" stroke-linecap="round" stroke-linejoin="round" stroke-miterlimit="10" d="
					M190.3,29c0.4,13.7,1.6,27.3,3.6,40.8"/>
			</g>
			<g>
				
					<path fill="none" stroke="#ED1E70" stroke-width="2.8" stroke-linecap="round" stroke-linejoin="round" stroke-miterlimit="10" d="
					M203.4,29.8c0.7,12.3,1,24.6,0.9,36.9"/>
				
					<path fill="none" stroke="#ED1E70" stroke-width="2.8" stroke-linecap="round" stroke-linejoin="round" stroke-miterlimit="10" d="
					M204.4,58.6c0.2-2.1-0.7-5.1,0.5-6.8c1.2-1.7,3.8-2.6,5.5-1.4c1.2,0.8,1.6,2.3,1.9,3.7c1,4.4,1.5,8.8,1.5,13.3"/>
			</g>
			<g>
				
					<path fill="none" stroke="#ED1E70" stroke-width="2.8" stroke-linecap="round" stroke-linejoin="round" stroke-miterlimit="10" d="
					M219.9,46.6c0,5.6,0.5,11.3,1.4,16.9"/>
				
					<path fill="none" stroke="#ED1E70" stroke-width="2.8" stroke-linecap="round" stroke-linejoin="round" stroke-miterlimit="10" d="
					M221.6,36.1c0,0.3,0.1,0.5,0.1,0.8"/>
			</g>
			<g>
				
					<path fill="none" stroke="#ED1E70" stroke-width="2.8" stroke-linecap="round" stroke-linejoin="round" stroke-miterlimit="10" d="
					M227.8,48.2c1.5,5.7,2.3,11.7,2.4,17.6"/>
				
					<path fill="none" stroke="#ED1E70" stroke-width="2.8" stroke-linecap="round" stroke-linejoin="round" stroke-miterlimit="10" d="
					M229.7,57.5c-0.8-4,2.8-8.9,6.6-10.5c0.5-0.2,1.1-0.4,1.6-0.2c0.8,0.3,1.1,1.3,1.3,2.1c1.1,5.3,1.6,10.8,1.4,16.2"/>
			</g>
			<g>
				
					<path fill="none" stroke="#ED1E70" stroke-width="2.8" stroke-linecap="round" stroke-linejoin="round" stroke-miterlimit="10" d="
					M255.9,45.5c-0.8-2.6-3.5-2.3-5.6-0.7c-2.2,1.6-3,4.5-3.4,7.2c-0.4,3-0.4,6.3,1.6,8.6c2,2.2,6.9,1.9,7.7-1"/>
				
					<path fill="none" stroke="#ED1E70" stroke-width="2.8" stroke-linecap="round" stroke-linejoin="round" stroke-miterlimit="10" d="
					M255.9,39.2c0.5,13.9,1,19.3,1.5,33.2c0.2,4.7-0.9,10.9-5.6,11.5"/>
			</g>
			
				<path fill="none" stroke="#ED1E70" stroke-width="2.8" stroke-linecap="round" stroke-linejoin="round" stroke-miterlimit="10" d="
				M277.3,49c-1.7-4.1-7.5-5.9-11.2-3.5c-0.8,0.5-1.5,1.2-1.8,2.2c-0.5,1.9,1.1,3.7,2.7,4.9c2,1.6,4.1,3,5.4,5.1s1.8,5.1,0.2,7
				c-1.6,2-5.3,1.8-6.1-0.6"/>
			<g>
				
					<path fill="none" stroke="#ED1E70" stroke-width="2.8" stroke-linecap="round" stroke-linejoin="round" stroke-miterlimit="10" d="
					M132.8,50.1c-3.4-2.6-8.8-2.1-11.7,1.1c-2.9,3.2-2.9,8.6,0,11.7c2.9,3.2,9.9,3.1,13.3,0.5"/>
				
					<path fill="none" stroke="#ED1E70" stroke-width="2.8" stroke-linecap="round" stroke-linejoin="round" stroke-miterlimit="10" d="
					M131.9,43.7c1.2,8.5,1,14.7,3.7,23.4"/>
			</g>
			
				<path fill="none" stroke="#ED1E70" stroke-width="2.8" stroke-linecap="round" stroke-linejoin="round" stroke-miterlimit="10" d="
				M137.7,49.3c2.1,6.5,4.1,13,6.2,19.5c2-5.8,3.9-11.6,5.9-17.4c1.3,5.2,4,9.9,7.6,13.6c1-6.9,2-13.7,3-20.6"/>
			<g>
				
					<path fill="none" stroke="#ED1E70" stroke-width="2.8" stroke-linecap="round" stroke-linejoin="round" stroke-miterlimit="10" d="
					M105,49.7c-3.5-1.4-8.9-1.1-11.9,1.7c-3.2,2.9-4.7,7.9-2.8,11.8s7.7,5.6,11,2.7"/>
				
					<path fill="none" stroke="#ED1E70" stroke-width="2.8" stroke-linecap="round" stroke-linejoin="round" stroke-miterlimit="10" d="
					M100,33.8c0.6,12.7,1.9,25.4,3.8,37.9"/>
			</g>
			
				<path fill="none" stroke="#ED1E70" stroke-width="2.8" stroke-linecap="round" stroke-linejoin="round" stroke-miterlimit="10" d="
				M109.1,48.5c0,6.9,0.6,13.8,1.8,20.5c-0.8-4.3-1.5-8.8-0.6-13.1c0.9-4.3,3.9-8.5,8.2-9.5"/>
		</g>
		<g>
			
				<path fill="none" stroke="#ED1E70" stroke-width="2.8" stroke-linecap="round" stroke-linejoin="round" stroke-miterlimit="10" d="
				M303.9,50.8c7-0.5,14-1,21-1.5"/>
			
				<path fill="none" stroke="#ED1E70" stroke-width="2.8" stroke-linecap="round" stroke-linejoin="round" stroke-miterlimit="10" d="
				M314.5,40.3c-0.5,7.7-0.1,15.5,1.1,23.1"/>
		</g>
	</g>
</g>
</svg>
