<!-- Generator: Adobe Illustrator 18.1.0, SVG Export Plug-In  -->
<svg version="1.1"
	 xmlns="http://www.w3.org/2000/svg" xmlns:xlink="http://www.w3.org/1999/xlink" xmlns:a="http://ns.adobe.com/AdobeSVGViewerExtensions/3.0/"
	 x="0px" y="0px" width="94.243px" height="110.687px" viewBox="0 0 94.243 110.687" enable-background="new 0 0 94.243 110.687"
	 xml:space="preserve">
<defs>
</defs>
<g>
	<path fill="#FFFFFF" stroke="#65BFB2" stroke-width="0.6254" stroke-linejoin="round" stroke-miterlimit="10" d="M61.664,24.854
		c2.771,1.395,6.192,0.92,8.883-0.104c3.774-1.436,7.15-4.268,8.229-8.172c1.038-3.753-0.242-8.076-2.901-11.167
		c-6.212-7.22-16.648-6.839-20.611,1.568c-1.438,3.05-1.59,6.74-0.414,10.052C56.062,20.447,58.602,23.313,61.664,24.854z"/>
	<path fill="#FFFFFF" stroke="#65BFB2" stroke-width="0.6254" stroke-linejoin="round" stroke-miterlimit="10" d="M93.251,17.597
		c0.121-0.245,0.242-0.49,0.364-0.735c0.276-0.553,0.519-1.305,0.056-1.714c-0.217-0.192-0.525-0.232-0.813-0.259
		c-4.696-0.444-9.384,0.284-14.077,0.405c-2.74,0.071-5.481,0.142-8.222,0.15c-1.55,0.005-2.968,0.039-4.515-0.135
		c-0.663-0.075-1.51,0.183-1.586,0.845c-0.031,0.272,0.084,0.538,0.205,0.784c2.265,4.613,5.894,8.873,8.834,13.08
		c1.757,2.515,3.506,5.038,5.306,7.522c0.32,0.442,3.818,4.628,3.711,4.886C85.975,33.987,89.229,25.762,93.251,17.597z"/>
	<path fill="#FFFFFF" stroke="#65BFB2" stroke-width="0.7817" stroke-linejoin="round" stroke-miterlimit="10" d="M43.264,17.969
		c-3.8,0.602-7.808,3.062-10.328,5.934c-1.457,1.66-2.457,3.663-3.678,5.504s-2.765,3.598-4.837,4.366
		c-0.326-0.514-0.021-1.182,0.289-1.707c2.999-5.078,6.608-10.036,10.654-14.341c4.209-4.479,9.328-8.239,15.182-10.11
		c3.061-0.978,7.13-1.057,8.714,1.74c1.204,2.125,0.172,4.986-1.753,6.488s-4.485,1.909-6.927,1.957
		C48.138,17.847,45.676,17.587,43.264,17.969z"/>
	<path fill="#FFFFFF" stroke="#65BFB2" stroke-width="0.7817" stroke-linejoin="round" stroke-miterlimit="10" d="M77.355,51.527
		c0.023,3.848-1.754,8.201-4.179,11.154c-1.402,1.707-3.216,3.019-4.834,4.523c-1.619,1.503-3.102,3.313-3.523,5.481
		c0.56,0.238,1.17-0.172,1.637-0.562c4.524-3.783,8.83-8.15,12.422-12.84c3.736-4.88,6.616-10.541,7.512-16.622
		c0.468-3.179-0.115-7.207-3.131-8.316c-2.292-0.843-4.948,0.639-6.117,2.783c-1.169,2.144-1.156,4.736-0.807,7.153
		C76.685,46.698,77.341,49.085,77.355,51.527z"/>
	<path fill="#FFFFFF" stroke="#65BFB2" stroke-width="0.7817" stroke-linejoin="round" stroke-miterlimit="10" d="M31.27,32.456
		c0.94-1.562,1.891-3.137,3.142-4.463s2.845-2.4,4.642-2.709c2.221-0.382,4.523,0.455,6.31,1.829
		c0.766,0.589,1.471,1.294,1.881,2.169c0.491,1.048,0.52,2.257,0.361,3.403c-0.431,3.1-2.241,5.983-4.845,7.719"/>
	<path fill="#FFFFFF" stroke="#65BFB2" stroke-width="0.7817" stroke-linejoin="round" stroke-miterlimit="10" d="M57.202,53.429
		c0.311-0.374,0.629-0.743,0.973-1.087c2.276-2.278,5.838-3.321,8.877-2.256c3.038,1.065,5.231,4.384,4.663,7.553
		c-0.543,3.034-3.179,5.181-5.633,7.045"/>
	<path fill="#FFFFFF" stroke="#65BFB2" stroke-width="0.7817" stroke-linejoin="round" stroke-miterlimit="10" d="M33.141,28.058
		c0.241,0.016,0.487,0.049,0.739,0.098c1.688,0.33,3.189,1.261,4.622,2.211C48.637,37.09,57.459,45.64,65.359,54.886
		c1.917,2.244,3.844,4.655,4.439,7.545c1.038,5.042-3.799,8.828-6.834,12.125c-14.256-11.633-27.12-24.858-39.946-38.051
		C25.756,33.516,28.405,27.734,33.141,28.058z"/>
	<path fill="#FFFFFF" stroke="#65BFB2" stroke-width="0.6254" stroke-linejoin="round" stroke-miterlimit="10" d="M52.638,57.339
		c1.87-0.611,3.74-1.222,5.61-1.833c0.542,0.102,0.515,0.885,0.349,1.41c-0.319,1.008-0.638,2.017-0.957,3.025
		c1.385-0.697,2.865-1.206,4.386-1.507c0.186-0.037,0.404-0.062,0.54,0.069c0.153,0.146,0.113,0.395,0.059,0.599
		c-0.526,2.008-1.298,3.951-2.292,5.773"/>
	<path fill="#FFFFFF" stroke="#65BFB2" stroke-width="0.7817" stroke-linejoin="round" stroke-miterlimit="10" d="M0.55,70.776
		c0.265-2.016,0.833-4.001,1.478-5.936c4.403-13.199,12.485-24.271,22.851-33.423c0.352-0.311,0.732-0.623,1.19-0.727
		c0.579-0.131,1.173,0.092,1.717,0.329c7.5,3.269,36.398,29.918,39.724,39.011c0.141,0.386,0.272,0.788,0.243,1.198
		c-0.048,0.66-0.497,1.212-0.928,1.714c-5.41,6.305-11.217,12.25-16.957,18.251c-3.69,3.925-8.054,7.57-11.281,11.831
		c-0.957,1.264-1.962,2.678-1.863,4.26c0.034,0.546,0.202,1.082,0.194,1.629s-0.259,1.151-0.776,1.332
		c-0.53,0.186-1.124-0.16-1.422-0.636c-0.297-0.476-0.374-1.052-0.47-1.604c-0.559-3.196-2.009-5.837-4.013-8.332
		c-3.73-4.642-8.025-8.834-12.065-13.203c-4.136-4.472-8.134-9.144-12.441-13.451c-0.226-0.244-0.471-0.5-0.793-0.583
		c-1.598-0.41-1.555,3.218-3.205,3.222c-0.928,0.002-1.311-1.189-1.337-2.116C0.371,72.615,0.429,71.692,0.55,70.776z"/>
	<path fill="#FFFFFF" stroke="#65BFB2" stroke-width="0.7817" stroke-linejoin="round" stroke-miterlimit="10" d="M67.764,62.701"/>
	<path fill="#66C0B3" d="M37.272,30.403c0.817,0.403,0.938,1.727,0.208,2.272c-0.73,0.545-1.965,0.053-2.12-0.844
		c-0.155-0.897,0.843-1.776,1.713-1.507"/>
	<path fill="#66C0B3" d="M66.821,62.714c1.83,0.349,2.207-3.049,0.088-2.522C65.693,60.495,65.443,62.451,66.821,62.714z"/>
	<path fill="#FFFFFF" stroke="#65BFB2" stroke-width="0.469" stroke-linejoin="round" stroke-miterlimit="10" d="M36.065,57.887
		c-2.722-2.036-5.74-3.732-8.594-4.421c-3.849-0.929-8.297-0.131-10.973,2.788c-5.976,6.518-3.063,14.756,2.188,20.317
		c3.759,3.98,8.1,7.739,13.4,9.109c6.285,1.624,13.424-2.249,14.538-8.881c0.821-4.884-1.388-9.885-4.697-13.569
		C40.342,61.466,38.303,59.562,36.065,57.887z"/>
</g>
</svg>