<!-- Generator: Adobe Illustrator 18.1.0, SVG Export Plug-In  -->
<svg version="1.1"
	 xmlns="http://www.w3.org/2000/svg" xmlns:xlink="http://www.w3.org/1999/xlink" xmlns:a="http://ns.adobe.com/AdobeSVGViewerExtensions/3.0/"
	 x="0px" y="0px" width="103.016px" height="101.624px" viewBox="0 0 103.016 101.624" enable-background="new 0 0 103.016 101.624"
	 xml:space="preserve">
<defs>
</defs>
<g>
	<path fill="#FFFFFF" d="M44.578,58.629c-1.774,5.992-6.166,8.782-13.821,8.782c-0.784,0-1.615-0.031-2.472-0.091
		c-3.127-0.22-6.436-0.59-9.45-1.792c-4.088-1.631-6.126-4.836-7.116-7.237c-1.704-4.132-1.641-9.093,0.169-13.27
		c2.757-6.362,9.789-10.806,17.101-10.806c4.388,0,8.354,1.654,11.167,4.658C44.826,43.855,46.602,51.795,44.578,58.629z
		 M88.435,58.29c-0.99,2.401-3.029,5.606-7.116,7.237c-3.014,1.203-6.323,1.572-9.45,1.793c-0.857,0.061-1.688,0.091-2.472,0.091
		c-7.655,0-12.046-2.791-13.821-8.782c-2.024-6.834-0.247-14.774,4.421-19.757c2.814-3.004,6.779-4.658,11.167-4.658
		c7.312,0,14.345,4.444,17.101,10.806C90.075,49.197,90.138,54.158,88.435,58.29z"/>
	<polygon fill="#F4F4F4" points="36.873,48.796 67.113,47.116 65.433,51.85 36.873,53.836 	"/>
	<path opacity="0.5" fill="#ED1E70" d="M18.384,66.66c3.107,1.24,6.48,1.642,9.817,1.877c7.908,0.557,15.073-1.205,17.548-9.562
		c2.107-7.113,0.41-15.482-4.7-20.937c-8.732-9.322-25.344-4.891-30.278,6.497C7.27,52.613,9.912,63.279,18.384,66.66z"/>
	<path opacity="0.5" fill="#ED1E70" d="M81.771,66.66c-3.107,1.24-6.48,1.642-9.817,1.877c-7.908,0.557-15.073-1.205-17.548-9.562
		c-2.107-7.113-0.41-15.482,4.7-20.937c8.732-9.322,25.344-4.891,30.278,6.497C92.884,52.613,90.242,63.279,81.771,66.66z"/>
	<g>
		<defs>
			<path id="SVGID_2_" d="M18.384,66.66c3.107,1.24,6.48,1.642,9.817,1.877c7.908,0.557,15.073-1.205,17.548-9.562
				c2.107-7.113,0.41-15.482-4.7-20.937c-8.732-9.322-25.344-4.891-30.278,6.497C7.27,52.613,9.912,63.279,18.384,66.66z"/>
		</defs>
		<clipPath id="SVGID_3_">
			<use xlink:href="#SVGID_2_"  overflow="visible"/>
		</clipPath>
		<g clip-path="url(#SVGID_3_)">
			
				<line fill="none" stroke="#ED1E70" stroke-width="0.5275" stroke-miterlimit="10" x1="51.067" y1="51.223" x2="19.887" y2="80.296"/>
			
				<line fill="none" stroke="#ED1E70" stroke-width="0.5275" stroke-miterlimit="10" x1="79.844" y1="17.806" x2="16.602" y2="76.773"/>
			
				<line fill="none" stroke="#ED1E70" stroke-width="0.5275" stroke-miterlimit="10" x1="76.56" y1="14.283" x2="13.318" y2="73.251"/>
			
				<line fill="none" stroke="#ED1E70" stroke-width="0.5275" stroke-miterlimit="10" x1="73.275" y1="10.761" x2="10.033" y2="69.728"/>
			
				<line fill="none" stroke="#ED1E70" stroke-width="0.5275" stroke-miterlimit="10" x1="69.991" y1="7.238" x2="6.749" y2="66.206"/>
			
				<line fill="none" stroke="#ED1E70" stroke-width="0.5275" stroke-miterlimit="10" x1="66.706" y1="3.715" x2="3.464" y2="62.683"/>
			
				<line fill="none" stroke="#ED1E70" stroke-width="0.5275" stroke-miterlimit="10" x1="63.422" y1="0.193" x2="0.18" y2="59.161"/>
		</g>
		<use xlink:href="#SVGID_2_"  overflow="visible" fill="none" stroke="#ED1E70" stroke-width="0.31" stroke-miterlimit="10"/>
	</g>
	<g>
		<defs>
			<path id="SVGID_1_" d="M81.771,66.66c-3.107,1.24-6.48,1.642-9.817,1.877c-7.908,0.557-15.073-1.205-17.548-9.562
				c-2.107-7.113-0.41-15.482,4.7-20.937c8.732-9.322,25.344-4.891,30.278,6.497C92.884,52.613,90.242,63.279,81.771,66.66z"/>
		</defs>
		<clipPath id="SVGID_4_">
			<use xlink:href="#SVGID_1_"  overflow="visible"/>
		</clipPath>
		<g clip-path="url(#SVGID_4_)">
			
				<line fill="none" stroke="#ED1E70" stroke-width="0.5275" stroke-miterlimit="10" x1="99.551" y1="38.941" x2="36.309" y2="97.909"/>
			
				<line fill="none" stroke="#ED1E70" stroke-width="0.5275" stroke-miterlimit="10" x1="96.267" y1="35.418" x2="33.025" y2="94.386"/>
			
				<line fill="none" stroke="#ED1E70" stroke-width="0.5275" stroke-miterlimit="10" x1="92.982" y1="31.896" x2="29.74" y2="90.864"/>
			
				<line fill="none" stroke="#ED1E70" stroke-width="0.5275" stroke-miterlimit="10" x1="89.698" y1="28.373" x2="26.456" y2="87.341"/>
			
				<line fill="none" stroke="#ED1E70" stroke-width="0.5275" stroke-miterlimit="10" x1="86.413" y1="24.851" x2="51.527" y2="57.379"/>
			
				<line fill="none" stroke="#ED1E70" stroke-width="0.5275" stroke-miterlimit="10" x1="83.129" y1="21.328" x2="51.067" y2="51.223"/>
			
				<line fill="none" stroke="#ED1E70" stroke-width="0.5275" stroke-miterlimit="10" x1="102.836" y1="42.464" x2="39.594" y2="101.431"/>
		</g>
	</g>
	<path fill="#ED1E70" d="M90.504,44.05c-3.131-7.228-11.085-12.276-19.34-12.276c-5.07,0-9.668,1.928-12.948,5.43
		c-2.759,2.945-4.61,6.698-5.435,10.709l-5.344,0.297c-0.794-4.123-2.671-7.988-5.497-11.006c-3.28-3.502-7.878-5.43-12.948-5.43
		c-8.255,0-16.208,5.048-19.34,12.276c-2.067,4.77-2.136,10.441-0.186,15.17c1.653,4.009,4.66,7.054,8.467,8.573
		c3.324,1.326,6.859,1.726,10.183,1.961c0.913,0.064,1.802,0.097,2.643,0.097c0,0,0.001,0,0.001,0
		c8.653,0,14.09-3.543,16.159-10.529c0.605-2.043,0.912-4.15,0.943-6.249l4.429-0.308c0.004,2.201,0.312,4.415,0.947,6.557
		c2.069,6.987,7.506,10.529,16.16,10.529c0.84,0,1.73-0.033,2.643-0.097c3.324-0.234,6.859-0.634,10.183-1.961
		c3.807-1.519,6.814-4.564,8.467-8.573C92.64,54.491,92.571,48.82,90.504,44.05z M44.578,58.629
		c-1.774,5.992-6.166,8.782-13.821,8.782c-0.784,0-1.615-0.031-2.472-0.091c-3.127-0.22-6.436-0.59-9.45-1.792
		c-4.088-1.631-6.126-4.836-7.116-7.237c-1.704-4.132-1.641-9.093,0.169-13.27c2.757-6.362,9.789-10.806,17.101-10.806
		c4.388,0,8.354,1.654,11.167,4.658C44.826,43.855,46.602,51.795,44.578,58.629z M88.435,58.29c-0.99,2.401-3.029,5.606-7.116,7.237
		c-3.014,1.203-6.323,1.572-9.45,1.793c-0.857,0.061-1.688,0.091-2.472,0.091c-7.655,0-12.046-2.791-13.821-8.782
		c-2.024-6.834-0.247-14.774,4.421-19.757c2.814-3.004,6.779-4.658,11.167-4.658c7.312,0,14.345,4.444,17.101,10.806
		C90.075,49.197,90.138,54.158,88.435,58.29z"/>
</g>
</svg>