<!-- Generator: Adobe Illustrator 18.1.0, SVG Export Plug-In  -->
<svg version="1.1"
	 xmlns="http://www.w3.org/2000/svg" xmlns:xlink="http://www.w3.org/1999/xlink" xmlns:a="http://ns.adobe.com/AdobeSVGViewerExtensions/3.0/"
	 x="0px" y="0px" width="1032.469px" height="152.015px" viewBox="0 0 1032.469 152.015"
	 enable-background="new 0 0 1032.469 152.015" xml:space="preserve">
<defs>
</defs>
<polygon fill="#FFFFFF" stroke="#EC2071" stroke-miterlimit="10" points="0.5,115.348 1007.018,151.5 1031.915,28.234 993.033,0.5 
	0.5,0.5 "/>
<g>
	<polygon fill="#FFE8C0" points="992.664,89.145 988.394,89.145 989.096,62.484 947.867,48.383 964.698,29.946 956.704,11.419 
		920.181,14.802 916.446,32.271 932.742,49.796 894.013,66.871 897.273,89.145 891.864,89.145 887.744,89.145 888.993,97.364 
		890.249,105.629 895.224,105.629 899.686,105.629 902.523,125.013 910.305,132.195 980.643,132.747 987.449,125.039 
		987.96,105.629 991.656,105.629 996.261,105.629 996.261,96.843 996.261,89.145 	"/>
	<polygon fill="#F4F4F4" points="930.504,93.496 960.744,91.816 959.064,96.55 930.504,98.536 	"/>
	<polygon opacity="0.5" fill="#ED1E70" points="919.254,55.743 894.013,66.871 897.273,89.145 920.181,66.941 	"/>
	<polygon opacity="0.5" fill="#ED1E70" points="989.096,62.484 975.25,57.748 968.472,66.941 988.394,89.145 	"/>
	<polygon fill="#ED1E70" points="947.867,48.383 964.698,29.946 956.704,11.419 920.181,14.802 916.446,32.271 932.742,49.796 
		910.684,59.522 920.181,66.941 968.472,66.941 975.289,57.761 	"/>
	<polygon fill="#ED1E70" points="975.289,57.761 968.472,66.941 966.732,72.444 964.44,66.941 960.744,69.814 953.688,66.941 	"/>
	<path fill="#FFFFFF" d="M912.015,111.36c3.107,1.24,6.48,1.642,9.817,1.877c7.908,0.557,15.073-1.205,17.548-9.562
		c2.107-7.113,0.41-15.482-4.7-20.937c-8.732-9.322-25.344-4.891-30.278,6.497C900.901,97.313,903.544,107.979,912.015,111.36z"/>
	<path fill="#FFFFFF" d="M975.402,111.36c-3.107,1.24-6.48,1.642-9.817,1.877c-7.908,0.557-15.073-1.205-17.548-9.562
		c-2.107-7.113-0.41-15.482,4.7-20.937c8.732-9.322,25.344-4.891,30.278,6.497C986.516,97.313,983.873,107.979,975.402,111.36z"/>
	<g>
		<defs>
			<path id="SVGID_2_" d="M912.015,111.36c3.107,1.24,6.48,1.642,9.817,1.877c7.908,0.557,15.073-1.205,17.548-9.562
				c2.107-7.113,0.41-15.482-4.7-20.937c-8.732-9.322-25.344-4.891-30.278,6.497C900.901,97.313,903.544,107.979,912.015,111.36z"/>
		</defs>
		<clipPath id="SVGID_3_">
			<use xlink:href="#SVGID_2_"  overflow="visible"/>
		</clipPath>
		<g clip-path="url(#SVGID_3_)">
			
				<line fill="none" stroke="#B3B3B3" stroke-width="0.5275" stroke-miterlimit="10" x1="944.698" y1="95.923" x2="913.518" y2="124.996"/>
			
				<line fill="none" stroke="#B3B3B3" stroke-width="0.5275" stroke-miterlimit="10" x1="973.476" y1="62.506" x2="910.233" y2="121.474"/>
			
				<line fill="none" stroke="#B3B3B3" stroke-width="0.5275" stroke-miterlimit="10" x1="970.191" y1="58.983" x2="906.949" y2="117.951"/>
			
				<line fill="none" stroke="#B3B3B3" stroke-width="0.5275" stroke-miterlimit="10" x1="966.907" y1="55.461" x2="903.664" y2="114.429"/>
			
				<line fill="none" stroke="#B3B3B3" stroke-width="0.5275" stroke-miterlimit="10" x1="963.622" y1="51.938" x2="900.38" y2="110.906"/>
			
				<line fill="none" stroke="#B3B3B3" stroke-width="0.5275" stroke-miterlimit="10" x1="960.338" y1="48.416" x2="897.096" y2="107.383"/>
			
				<line fill="none" stroke="#B3B3B3" stroke-width="0.5275" stroke-miterlimit="10" x1="957.053" y1="44.893" x2="893.811" y2="103.861"/>
		</g>
	</g>
	<g>
		<defs>
			<path id="SVGID_1_" d="M975.402,111.36c-3.107,1.24-6.48,1.642-9.817,1.877c-7.908,0.557-15.073-1.205-17.548-9.562
				c-2.107-7.113-0.41-15.482,4.7-20.937c8.732-9.322,25.344-4.891,30.278,6.497C986.516,97.313,983.873,107.979,975.402,111.36z"/>
		</defs>
		<clipPath id="SVGID_4_">
			<use xlink:href="#SVGID_1_"  overflow="visible"/>
		</clipPath>
		<g clip-path="url(#SVGID_4_)">
			
				<line fill="none" stroke="#B3B3B3" stroke-width="0.5275" stroke-miterlimit="10" x1="993.182" y1="83.641" x2="929.94" y2="142.609"/>
			
				<line fill="none" stroke="#B3B3B3" stroke-width="0.5275" stroke-miterlimit="10" x1="989.898" y1="80.119" x2="926.656" y2="139.086"/>
			
				<line fill="none" stroke="#B3B3B3" stroke-width="0.5275" stroke-miterlimit="10" x1="986.613" y1="76.596" x2="923.371" y2="135.564"/>
			
				<line fill="none" stroke="#B3B3B3" stroke-width="0.5275" stroke-miterlimit="10" x1="983.329" y1="73.074" x2="920.087" y2="132.041"/>
			
				<line fill="none" stroke="#B3B3B3" stroke-width="0.5275" stroke-miterlimit="10" x1="980.044" y1="69.551" x2="945.158" y2="102.08"/>
			
				<line fill="none" stroke="#B3B3B3" stroke-width="0.5275" stroke-miterlimit="10" x1="976.76" y1="66.029" x2="944.698" y2="95.923"/>
			
				<line fill="none" stroke="#B3B3B3" stroke-width="0.5275" stroke-miterlimit="10" x1="996.467" y1="87.164" x2="933.225" y2="146.132"/>
		</g>
	</g>
	<path opacity="0.5" fill="#ED1E70" d="M913.698,119.422c-1.195-3.6-6.837-2.969-7.274,0.742c-0.261,2.219,1.877,4.39,4.099,4.164
		C912.746,124.101,914.402,121.543,913.698,119.422z"/>
	<path opacity="0.5" fill="#ED1E70" d="M977.407,117.151c-1.183,0.446-2.149,1.468-2.331,3.013
		c-0.261,2.219,1.877,4.391,4.099,4.164c2.223-0.227,3.878-2.785,3.175-4.906C981.596,117.151,979.241,116.459,977.407,117.151z"/>
	<g>
		<path fill="#898989" d="M939.809,92.979c0.321,1.605,0.471,3.245,0.443,4.879l6.913-0.481c0.007-1.623,0.178-3.249,0.527-4.836
			L939.809,92.979z"/>
		<path fill="none" stroke="#898989" stroke-width="2.4397" stroke-miterlimit="10" d="M912.015,111.36
			c3.107,1.24,6.48,1.642,9.817,1.877c7.908,0.557,15.073-1.205,17.548-9.562c2.107-7.113,0.41-15.482-4.7-20.937
			c-8.732-9.322-25.344-4.891-30.278,6.497C900.901,97.313,903.544,107.979,912.015,111.36z"/>
		<path fill="none" stroke="#898989" stroke-width="2.4397" stroke-miterlimit="10" d="M975.402,111.36
			c-3.107,1.24-6.48,1.642-9.817,1.877c-7.908,0.557-15.073-1.205-17.548-9.562c-2.107-7.113-0.41-15.482,4.7-20.937
			c8.732-9.322,25.344-4.891,30.278,6.497C986.516,97.313,983.873,107.979,975.402,111.36z"/>
	</g>
</g>
</svg>