<!-- Generator: Adobe Illustrator 18.1.0, SVG Export Plug-In  -->
<svg version="1.1"
	 xmlns="http://www.w3.org/2000/svg" xmlns:xlink="http://www.w3.org/1999/xlink" xmlns:a="http://ns.adobe.com/AdobeSVGViewerExtensions/3.0/"
	 x="0px" y="0px" width="78.429px" height="82.099px" viewBox="0 0 78.429 82.099" enable-background="new 0 0 78.429 82.099"
	 xml:space="preserve">
<defs>
</defs>
<g>
	<path fill="#FFFFFF" stroke="#65BFB2" stroke-width="0.7817" stroke-linejoin="round" stroke-miterlimit="10" d="M7.327,20.894
		c-0.454-1.766-0.911-3.548-0.979-5.37c-0.068-1.822,0.284-3.711,1.323-5.209c1.285-1.852,3.496-2.906,5.728-3.217
		c0.957-0.133,1.954-0.142,2.865,0.18c1.091,0.385,1.974,1.212,2.679,2.129c1.908,2.481,2.695,5.793,2.106,8.867"/>
	<path fill="#FFFFFF" stroke="#65BFB2" stroke-width="0.7817" stroke-linejoin="round" stroke-miterlimit="10" d="M40.463,17.11
		c-0.048-0.484-0.088-0.97-0.093-1.456c-0.028-3.219,1.726-6.491,4.615-7.911c2.89-1.42,6.794-0.656,8.655,1.971
		c1.782,2.514,1.466,5.899,1.073,8.956"/>
	<path fill="#FFFFFF" stroke="#65BFB2" stroke-width="0.7817" stroke-linejoin="round" stroke-miterlimit="10" d="M5.503,19.269
		c0.181-0.16,0.376-0.313,0.588-0.458c1.418-0.972,3.135-1.39,4.817-1.745c11.899-2.513,24.181-2.809,36.313-1.958
		c2.944,0.206,6.014,0.523,8.492,2.125c4.323,2.795,3.63,8.898,3.853,13.374c-18.29,2.008-36.739,1.907-55.139,1.802
		C4.216,28.362,1.951,22.419,5.503,19.269z"/>
	<path fill="#FFFFFF" stroke="#65BFB2" stroke-width="0.7817" stroke-linejoin="round" stroke-miterlimit="10" d="M40.051,27.76
		c0.875-1.762,1.751-3.523,2.626-5.285c0.452-0.315,0.992,0.253,1.25,0.74c0.495,0.935,0.991,1.869,1.486,2.804
		c0.474-1.476,1.149-2.888,2.001-4.184c0.104-0.158,0.239-0.331,0.428-0.337c0.211-0.006,0.361,0.196,0.469,0.378
		c1.062,1.783,1.907,3.696,2.509,5.682"/>
	<path fill="#FFFFFF" stroke="#65BFB2" stroke-width="0.7817" stroke-linejoin="round" stroke-miterlimit="10" d="M5.004,80.701
		C3.16,65.95,2.948,51.065,2.198,36.225c-0.1-1.971-0.199-3.946-0.093-5.917c0.025-0.469,0.069-0.959,0.316-1.359
		c0.312-0.504,0.888-0.772,1.439-0.994c7.59-3.056,46.853-4.974,55.668-0.971c0.374,0.17,0.753,0.358,1.024,0.667
		c0.437,0.497,0.516,1.204,0.572,1.864c0.712,8.371,0.867,16.778,0.87,25.175c0.003,7.838-0.767,15.635-0.61,23.395
		c0.022,1.089-0.247,2.531-1.33,2.64c-0.979,0.099-1.592-1.075-1.637-2.057c-0.045-0.983,0.166-2.052-0.352-2.889
		c-0.676-1.093-2.198-1.198-3.483-1.179c-15.085,0.229-30.55,0.231-45.544,1.972c-0.395,0.046-0.808,0.101-1.135,0.328
		c-0.899,0.622-0.616,1.976-0.65,3.069s-1.389,2.322-2.027,1.433C5.08,81.202,5.04,80.947,5.004,80.701z"/>
	<path fill="#FFFFFF" stroke="#65BFB2" stroke-width="0.7817" stroke-linejoin="round" stroke-miterlimit="10" d="M54.481,18.873"/>
	<path fill="#66C0B3" d="M10.071,21.226c0.86-0.299,1.889,0.542,1.766,1.445c-0.123,0.902-1.34,1.438-2.088,0.92
		s-0.675-1.846,0.126-2.279"/>
	<path fill="#66C0B3" d="M53.828,22.348c1.532-1.06-0.626-3.711-1.736-1.831C51.455,21.596,52.674,23.146,53.828,22.348z"/>
	<path fill="#FFFFFF" stroke="#65BFB2" stroke-width="0.469" stroke-linejoin="round" stroke-miterlimit="10" d="M28.364,40.98
		c-3.36,0.513-6.685,1.476-9.178,3.028c-3.361,2.093-5.911,5.825-5.706,9.779c0.457,8.831,8.373,12.53,16.02,12.685
		c5.474,0.111,11.197-0.349,15.89-3.167c5.565-3.342,7.809-11.149,3.861-16.593c-2.907-4.01-8.021-5.941-12.969-6.165
		C33.915,40.439,31.128,40.558,28.364,40.98z"/>
	<g>
		<path fill="#FFFFFF" stroke="#65BFB2" stroke-width="0.7817" stroke-linejoin="round" stroke-miterlimit="10" d="M71.195,0.57
			c0.294,0.26,0.331,0.698,0.346,1.09c0.228,5.937,0.202,11.883-0.079,17.818c-0.461-0.191-0.974-0.253-1.466-0.178
			C69.455,13.71,69.263,8.087,69.42,2.474c0.015-0.549,0.045-1.131,0.355-1.584C70.085,0.437,70.784,0.207,71.195,0.57z"/>
		<polygon fill="#FFFFFF" stroke="#65BFB2" stroke-width="0.7817" stroke-linejoin="round" stroke-miterlimit="10" points="
			56.451,15.422 74.675,15.422 74.675,65.708 58.828,65.708 58.035,59.793 61.205,54.147 61.007,35.032 56.451,28.892 		"/>
		<polygon fill="#FFFFFF" stroke="#65BFB2" stroke-width="0.7817" stroke-linejoin="round" stroke-miterlimit="10" points="
			56.451,15.422 74.675,15.422 74.675,65.708 58.828,65.708 58.035,59.793 61.205,54.147 61.007,35.032 56.451,28.892 		"/>
		<polygon fill="none" stroke="#65BFB2" stroke-width="0.469" stroke-linejoin="round" stroke-miterlimit="10" points="
			71.694,15.422 64.31,15.422 66.308,65.708 71.694,65.708 		"/>
		
			<line fill="none" stroke="#65BFB2" stroke-width="0.7817" stroke-linejoin="round" stroke-miterlimit="10" x1="56.451" y1="15.422" x2="74.675" y2="15.422"/>
	</g>
	<path fill="#FFFFFF" stroke="#65BFB2" stroke-width="0.7817" stroke-linejoin="round" stroke-miterlimit="10" d="M74.631,27.818
		c-1.378-0.237-2.872,0.267-3.806,1.313c-1.36,1.523-1.399,3.884-0.635,5.777s2.194,3.428,3.592,4.915
		c0.274,0.292,0.568,0.596,0.953,0.707c0.538,0.155,1.127-0.121,1.492-0.544c0.366-0.423,0.551-0.97,0.709-1.506
		c0.938-3.176,2.644-9.323-1.94-10.581C74.876,27.866,74.754,27.839,74.631,27.818z"/>
	<polygon fill="#FFFFFF" stroke="#65BFB2" stroke-width="0.6254" stroke-linejoin="round" stroke-miterlimit="10" points="
		12.209,39.59 45.259,29.328 49.715,51.148 21.948,60.841 	"/>
	<polyline fill="#FFFFFF" stroke="#65BFB2" stroke-width="0.469" stroke-linejoin="round" stroke-miterlimit="10" points="
		12.209,39.59 33.84,47.289 45.259,29.328 	"/>
	<polygon fill="none" stroke="#65BFB2" stroke-width="0.7817" stroke-linejoin="round" stroke-miterlimit="10" points="
		12.209,39.59 45.259,29.328 49.715,51.148 21.948,60.841 	"/>
	<path fill="#FFFFFF" stroke="#65BFB2" stroke-width="0.7817" stroke-linejoin="round" stroke-miterlimit="10" d="M21.99,48.422
		c-1.827-1.149-4.162-0.881-6.315-0.738c-1.846,0.123-4.369,0.252-6.702-0.079c-1.835-0.26-2.622-0.805-3.802-1.862
		c-0.553-0.495-0.971-1.124-1.317-1.781c-0.71-1.346-1.381-2.839-1.496-4.355c-0.003-0.042-0.006-0.074-0.009-0.107
		c-0.05-1.092-0.096-2.184-0.151-3.276c-0.1-1.971-0.199-3.946-0.093-5.917c0.018-0.33,0.048-0.669,0.149-0.981
		C-0.2,33.44,0.172,41.224,1.097,44.901c0.416,1.656,0.98,3.259,1.693,4.763c1.82,3.84,4.64,7.016,8.684,8.649
		c2.224,0.898,4.697,1.334,7.039,0.814c2.341-0.519,4.516-2.099,5.371-4.339C24.738,52.547,24.02,49.699,21.99,48.422z"/>
</g>
</svg>