<!-- Generator: Adobe Illustrator 18.1.0, SVG Export Plug-In  -->
<svg version="1.1"
	 xmlns="http://www.w3.org/2000/svg" xmlns:xlink="http://www.w3.org/1999/xlink" xmlns:a="http://ns.adobe.com/AdobeSVGViewerExtensions/3.0/"
	 x="0px" y="0px" width="36.973px" height="20.487px" viewBox="0 0 36.973 20.487" enable-background="new 0 0 36.973 20.487"
	 xml:space="preserve">
<defs>
</defs>
<path fill="#FFFFFF" stroke="#ED1E70" stroke-width="0.62" stroke-miterlimit="10" d="M35.098,0.816l-13.3,5.669
	c-0.602-0.973-1.646-1.652-2.875-1.727c-1.322-0.08-2.511,0.562-3.212,1.578L1.878,0.403C1.081,0.061,0.215,0.711,0.319,1.571
	l1.97,16.296c0.102,0.843,1.066,1.273,1.761,0.785l11.674-8.186c0.615,0.883,1.6,1.495,2.757,1.566
	c1.288,0.078,2.454-0.527,3.162-1.498l12.163,9.406c0.714,0.552,1.755,0.08,1.81-0.821l1.046-17.201
	C36.712,1.084,35.867,0.488,35.098,0.816z"/>
</svg>